<svg xmlns="http://www.w3.org/2000/svg" width="31.5" height="27.588" viewBox="0 0 31.5 27.588">
  <g id="Group_38" data-name="Group 38" transform="translate(0.064 0.196)">
    <g id="Group_36" data-name="Group 36">
      <rect id="Rectangle_178" data-name="Rectangle 178" width="27" height="27" transform="translate(-0.064 0.304)" fill="none"/>
      <path id="alarm-bell" d="M51.116,24.094l-1.4-3.493a6.8,6.8,0,0,1-.49-2.543V11.739a9.764,9.764,0,0,0-6.9-9.3,2.925,2.925,0,0,0-5.77,0,9.764,9.764,0,0,0-6.9,9.3v6.319a6.8,6.8,0,0,1-.49,2.543l-1.4,3.493a.978.978,0,0,0,.909,1.341h7.437a3.8,3.8,0,0,0,6.649,0h7.437a.978.978,0,0,0,.908-1.341Zm-20.986-.615.861-2.151a8.763,8.763,0,0,0,.63-3.269V11.739a7.826,7.826,0,1,1,15.653,0v6.319a8.763,8.763,0,0,0,.63,3.269l.861,2.151Z" transform="translate(-25.424 0)" fill="#404040"/>
    </g>
    <g id="Group_37" data-name="Group 37" transform="translate(18.261 1.141)">
      <g id="Ellipse_9" data-name="Ellipse 9" transform="translate(-0.325 0.163)" fill="#d6001b" stroke="#f4f8fb" stroke-width="1.5">
        <ellipse cx="6" cy="5.5" rx="6" ry="5.5" stroke="none"/>
        <ellipse cx="6" cy="5.5" rx="6.75" ry="6.25" fill="none"/>
      </g>
      <path id="Path_98" data-name="Path 98" d="M-2.435-1.666A13.2,13.2,0,0,0-.16-3.573,2.687,2.687,0,0,0,.7-5.3a1.145,1.145,0,0,0-.232-.754.92.92,0,0,0-.75-.281.963.963,0,0,0-.807.346,1.725,1.725,0,0,0-.307.986h-.973A2.325,2.325,0,0,1-1.72-6.629,2.109,2.109,0,0,1-.208-7.19a2,2,0,0,1,1.416.478,1.715,1.715,0,0,1,.513,1.32A2.642,2.642,0,0,1,1.3-4.025,5.7,5.7,0,0,1,.248-2.749a8.879,8.879,0,0,1-1.324,1H1.861V-.93h-4.3Z" transform="translate(6.011 9.059)" fill="#fff"/>
    </g>
  </g>
</svg>
