<svg xmlns="http://www.w3.org/2000/svg" width="27" height="27.392" viewBox="0 0 27 27.392">
  <g id="Group_36" data-name="Group 36" transform="translate(0.064)">
    <rect id="Rectangle_178" data-name="Rectangle 178" width="27" height="27" transform="translate(-0.064 0.304)" fill="none"/>
    <path id="alarm-bell" d="M51.116,24.094l-1.4-3.493a6.8,6.8,0,0,1-.49-2.543V11.739a9.764,9.764,0,0,0-6.9-9.3,2.925,2.925,0,0,0-5.77,0,9.764,9.764,0,0,0-6.9,9.3v6.319a6.8,6.8,0,0,1-.49,2.543l-1.4,3.493a.978.978,0,0,0,.909,1.341h7.437a3.8,3.8,0,0,0,6.649,0h7.437a.978.978,0,0,0,.908-1.341Zm-20.986-.615.861-2.151a8.763,8.763,0,0,0,.63-3.269V11.739a7.826,7.826,0,1,1,15.653,0v6.319a8.763,8.763,0,0,0,.63,3.269l.861,2.151Z" transform="translate(-25.424 0)" fill="#404040"/>
  </g>
</svg>
