<svg xmlns="http://www.w3.org/2000/svg" width="29" height="29" viewBox="0 0 29 29">
  <g id="Group_190" data-name="Group 190" transform="translate(0 0)">
    <rect id="Rectangle_174" data-name="Rectangle 174" width="29" height="29" transform="translate(0 0)" fill="none"/>
    <g id="Group_18" data-name="Group 18" transform="translate(2.154 2.217)">
      <path id="Path_92" data-name="Path 92" d="M12.488,0A12.488,12.488,0,1,1,0,12.488,12.488,12.488,0,0,1,12.488,0Z" fill="none" stroke="#999" stroke-width="1.3"/>
      <g id="user" transform="translate(4.541 6.812)">
        <g id="Group_17" data-name="Group 17" transform="translate(0)">
          <path id="Path_91" data-name="Path 91" d="M13.566,10.275a7.916,7.916,0,0,0-3.02-1.894,4.594,4.594,0,1,0-5.2,0A7.96,7.96,0,0,0,0,15.894H1.242a6.705,6.705,0,1,1,13.41,0h1.242A7.9,7.9,0,0,0,13.566,10.275ZM7.947,7.947A3.353,3.353,0,1,1,11.3,4.594,3.356,3.356,0,0,1,7.947,7.947Z" transform="translate(0)" fill="#999" stroke="#999" stroke-width="0.4"/>
        </g>
      </g>
    </g>
  </g>
</svg>
