<svg xmlns="http://www.w3.org/2000/svg" width="30" height="29.133" viewBox="0 0 30 29.133">
  <g id="Group_188" data-name="Group 188" transform="translate(-0.288 0.08)">
    <rect id="Rectangle_174" data-name="Rectangle 174" width="30" height="29" transform="translate(0.288 0.053)" fill="none"/>
    <path id="energy" d="M55.82,12.188a1,1,0,0,0-.923-.622H50.6L54.156,1.322A1,1,0,0,0,52.512.289L37.17,15.536a1,1,0,0,0,.7,1.7h4.25L38.255,27.463a1,1,0,0,0,1.625,1.067l15.71-15.254A1,1,0,0,0,55.82,12.188ZM40.251,26.328l3.671-9.271a1,1,0,0,0-.932-1.349l-4.175.141,13.7-13.486-3.385,9.274a1,1,0,0,0,.941,1.322H53.9Z" transform="translate(-31.019 0.001)" fill="#999" stroke="#999" stroke-width="0.1"/>
  </g>
</svg>
