<?xml version="1.0" encoding="utf-8"?>
<!-- Svg Vector Icons : http://www.onlinewebfonts.com/icon -->
<!DOCTYPE svg PUBLIC "-//W3C//DTD SVG 1.1//EN" "http://www.w3.org/Graphics/SVG/1.1/DTD/svg11.dtd">
<svg version="1.1" xmlns="http://www.w3.org/2000/svg" xmlns:xlink="http://www.w3.org/1999/xlink" x="0px" y="0px" viewBox="0 0 1000 1000" enable-background="new 0 0 1000 1000" xml:space="preserve">
<metadata> Svg Vector Icons : http://www.onlinewebfonts.com/icon </metadata>
<g><g transform="translate(0.000000,511.000000) scale(0.100000,-0.100000)"><path d="M186.9,2793.1c-23.7-9.9-53.3-41.5-65.2-67.2c-15.8-35.6-21.7-559.2-21.7-1813.8c0-1756.5,0-1764.4,41.5-1817.7l39.5-51.4h3218.6h3218.6l39.5,51.4c55.3,69.2,51.4,136.3-7.9,195.6l-47.4,49.4H3508.3H416.1V920.1v1580.6h3961.5h3961.5v-691.5c0-462.3,7.9-705.4,21.7-737c21.7-49.4,92.9-92.9,148.2-92.9c17.8,0,57.3,25.7,88.9,57.3l57.3,57.3v804.2v804.2l-57.3,57.3l-57.3,57.3l-4157.1-2C1564.1,2814.9,214.6,2807,186.9,2793.1z"/><path d="M1888.1,1680.8c-43.5-43.5-49.4-63.2-49.4-207.5v-162l-100.8,90.9c-114.6,102.7-205.5,120.5-274.6,51.4c-71.1-71.1-53.3-166,51.4-276.6l92.9-98.8h-162c-146.2,0-166-4-209.4-49.4c-53.3-51.4-63.2-138.3-23.7-189.7c43.5-57.3,108.7-77.1,252.9-77.1h142.3l-92.9-98.8c-110.6-118.5-124.5-207.5-39.5-274.6c83-65.2,136.3-53.4,256.9,59.3l106.7,102.7v-166c2-179.8,17.8-221.3,106.7-254.9c69.2-25.7,148.2,7.9,183.8,79c13.8,27.7,25.7,110.6,25.7,185.7v136.3l98.8-92.9c114.6-106.7,189.7-120.5,266.7-41.5c79,79,61.3,158.1-63.2,288.5l-69.2,73.1L2546,764c189.7,9.9,241,41.5,241,158.1c0,116.6-65.2,156.1-262.8,156.1h-158.1l102.7,106.7c112.6,120.5,124.5,173.9,59.3,256.9c-65.2,83-156.1,71.1-272.7-37.5l-96.8-90.9l-7.9,162c-5.9,146.2-11.8,164-61.2,207.5C2018.5,1744,1949.4,1744,1888.1,1680.8z"/><path d="M4063.5,1688.7c-47.4-37.5-51.4-51.4-51.4-207.5c0-90.9-7.9-166-15.8-166c-7.9,0-55.3,39.5-102.7,88.9c-67.2,69.2-100.8,88.9-150.2,88.9c-92.9,0-154.1-59.3-154.1-146.2c0-59.3,15.8-88.9,96.8-169.9l96.8-98.8h-160c-130.4,0-167.9-7.9-211.4-41.5c-63.2-49.4-69.2-148.2-13.8-217.3c33.6-41.5,57.3-47.4,209.4-55.3l169.9-5.9l-100.8-104.7c-106.7-114.6-114.6-140.3-69.2-225.2c57.3-112.6,158.1-110.6,284.5,7.9c51.4,49.4,100.8,88.9,108.7,88.9c5.9,0,11.9-65.2,11.9-146.2c0-179.8,9.9-207.5,85-239.1c71.1-29.6,162-5.9,191.7,49.4c11.9,19.8,19.8,110.6,19.8,199.6v162l106.7-102.7c142.3-132.4,237.1-134.4,306.3-5.9c33.6,63.2,11.9,118.5-92.9,227.2l-90.9,92.9h142.3c150.2,0,247,31.6,268.7,88.9c23.7,65.2,9.9,130.4-37.5,177.8c-43.5,45.4-63.2,49.4-211.4,49.4h-162l96.8,98.8c81,81,96.8,110.6,96.8,169.9c0,86.9-61.3,146.2-154.1,146.2c-49.4,0-83-19.8-150.2-88.9c-47.4-49.4-94.8-88.9-102.7-88.9c-7.9,0-15.8,75.1-15.8,166c0,156.1-4,169.9-51.4,207.5c-29.6,23.7-73.1,41.5-96.8,41.5C4136.6,1730.2,4093.1,1712.4,4063.5,1688.7z"/><path d="M6230.9,1682.7c-49.4-43.5-55.3-61.3-61.2-207.5l-7.9-162l-96.8,90.9c-116.6,108.7-207.5,120.5-272.7,37.5c-65.2-83-53.3-136.3,59.3-256.9l102.8-106.7h-160c-138.3,0-166-5.9-213.4-45.4c-69.2-59.3-73.1-156.1-9.9-217.3c35.6-35.6,69.2-45.4,201.5-51.4l160-5.9l-69.1-73.1c-124.5-130.4-142.3-209.4-63.2-288.5c75.1-77.1,146.2-65.2,264.8,41.5l100.8,90.9V392.5c0-73.1,11.9-156.1,25.7-183.8c35.6-71.1,114.6-104.7,183.8-79c88.9,33.6,104.7,75.1,106.7,254.9v166l106.7-102.7c120.5-112.6,173.9-124.5,256.9-59.3c85,67.2,71.1,156.1-39.5,274.6L6713,762h140.3c160.1,0,227.2,23.7,258.8,92.9c33.6,73.1,25.7,122.5-27.7,173.9c-43.5,45.4-63.2,49.4-209.4,49.4h-162l92.9,98.8c104.7,110.6,122.5,205.5,51.4,276.6c-71.1,71.1-166,53.3-276.6-51.4l-98.8-92.9v162c0,146.2-4,166-49.4,209.4C6371.2,1744,6302.1,1744,6230.9,1682.7z"/><path d="M8260.1,744.2c-223.3-9.9-258.8-17.8-379.4-75.1c-245-114.6-409-339.8-452.5-618.4c-11.9-77.1-17.8-241.1-13.8-365.5l5.9-223.3l-169.9-7.9c-278.6-9.9-254.9,88.9-254.9-1023.5c0-932.6,0-942.5,41.5-980c39.5-35.6,96.8-37.5,1394.9-43.5l1351.4-4l59.3,57.3l57.3,57.3v912.8v912.8l-57.3,57.3c-55.3,53.3-67.2,57.3-223.3,57.3h-164l5.9,268.7c5.9,292.4-11.8,418.9-83,573c-61.2,132.4-154.1,235.1-294.4,326C8908.1,740.3,8720.4,766,8260.1,744.2z M8815.3,416.3c118.6-41.5,205.5-114.6,268.7-223.3c53.3-88.9,55.3-106.7,65.2-414.9l9.9-320.1h-715.2h-717.2v272.7c0,148.2,9.9,306.3,21.7,349.7c43.5,152.1,166,278.6,328,337.9C8187,455.8,8702.7,455.8,8815.3,416.3z M9583.9-1569.4v-711.3h-1146h-1146v711.3v711.3h1146h1146V-1569.4z"/><path d="M8129.7-1456.8c-39.5-33.6-53.3-65.2-53.3-112.6c0-47.4,13.8-79,53.3-112.6c49.4-41.5,69.2-45.4,304.3-45.4c162,0,268.7,9.9,300.3,25.7c59.3,29.6,88.9,106.7,71.1,177.8c-21.7,88.9-98.8,112.6-375.4,112.6C8198.8-1411.4,8179.1-1415.3,8129.7-1456.8z"/></g></g>
</svg>