<svg width="340" height="192" viewBox="0 0 340 192" fill="none" xmlns="http://www.w3.org/2000/svg">
<g clip-path="url(#clip0_280_10)">
<path d="M65.4772 189.687C65.4772 189.687 19.8332 184.568 23.3144 145.509C27.036 103.724 74.306 106.873 88.1388 72.0959C101.972 37.3305 124.828 16.7644 154.383 20.9211C198.997 27.2077 187.03 63.9885 262.401 72.0959C309.511 77.1573 327.626 105.35 322.439 136.084C317.252 166.819 301.22 189.698 269.592 189.698H65.4772V189.687Z" fill="#FDA32E"/>
<path d="M17.0163 176.22C13.6726 176.839 11.0388 179.473 10.4205 182.816C10.3976 182.954 10.18 182.954 10.1571 182.816C9.53874 179.473 6.90499 176.839 3.56128 176.22C3.42387 176.198 3.42387 175.98 3.56128 175.946C6.90499 175.339 9.53874 172.705 10.1571 169.361C10.18 169.224 10.3976 169.224 10.4205 169.361C11.0388 172.705 13.6726 175.339 17.0163 175.946C17.1537 175.98 17.1537 176.198 17.0163 176.22Z" fill="#FDA32E"/>
<path d="M38.0061 68.9011C34.6624 69.5194 32.0286 72.1532 31.4103 75.4969C31.3874 75.6343 31.1698 75.6343 31.1469 75.4969C30.5285 72.1532 27.8948 69.5194 24.5511 68.9011C24.4137 68.8782 24.4137 68.6606 24.5511 68.6262C27.8948 68.0193 30.5285 65.3856 31.1469 62.0419C31.1698 61.9045 31.3874 61.9045 31.4103 62.0419C32.0286 65.3856 34.6624 68.0193 38.0061 68.6262C38.1435 68.6606 38.1435 68.8782 38.0061 68.9011Z" fill="#FDA32E"/>
<path d="M306.671 50.1328C303.327 50.7511 300.693 53.3849 300.075 56.7286C300.052 56.866 299.835 56.866 299.812 56.7286C299.193 53.3849 296.56 50.7511 293.216 50.1328C293.079 50.1099 293.079 49.8923 293.216 49.8579C296.56 49.251 299.193 46.6173 299.812 43.2736C299.835 43.1362 300.052 43.1362 300.075 43.2736C300.693 46.6173 303.327 49.251 306.671 49.8579C306.808 49.8923 306.808 50.1099 306.671 50.1328Z" fill="#FDA32E"/>
<path d="M339.215 177.686C335.871 178.305 333.237 180.938 332.619 184.282C332.596 184.419 332.379 184.419 332.356 184.282C331.737 180.938 329.104 178.305 325.76 177.686C325.623 177.663 325.623 177.446 325.76 177.411C329.104 176.804 331.737 174.171 332.356 170.827C332.379 170.69 332.596 170.69 332.619 170.827C333.237 174.171 335.871 176.804 339.215 177.411C339.352 177.446 339.352 177.663 339.215 177.686Z" fill="#FDA32E"/>
<path d="M96.166 43.869C96.166 43.869 96.1889 43.869 96.1889 43.8805C96.8417 44.1896 97.2195 44.3958 97.2195 44.3958C97.4715 44.5332 97.8608 44.4416 98.0211 44.1553C98.1814 43.869 98.0669 43.514 97.7806 43.3537C97.7806 43.3537 97.3913 43.1476 96.7042 42.8155C96.4065 42.6781 96.0515 42.8041 95.9141 43.0903C95.7767 43.3766 95.8912 43.7202 96.166 43.869Z" fill="black"/>
<path d="M16.1804 151.074C15.5735 150.673 14.9093 150.238 14.2222 149.746C13.9589 149.551 13.8901 149.184 14.0848 148.921C14.268 148.658 14.6459 148.578 14.9093 148.784C15.5849 149.265 16.2262 149.688 16.8216 150.078C17.0964 150.249 17.1766 150.616 16.9934 150.891C16.8216 151.154 16.4895 151.234 16.2147 151.085C16.2033 151.085 16.1918 151.074 16.1689 151.062L16.1804 151.074ZM11.4053 147.604C10.8098 147.123 10.2029 146.608 9.60745 146.07C9.36698 145.852 9.34407 145.474 9.56164 145.234C9.77921 144.993 10.1571 144.97 10.3976 145.188C10.9816 145.715 11.5656 146.219 12.1496 146.688C12.4015 146.894 12.4359 147.272 12.2297 147.524C12.0465 147.753 11.7373 147.799 11.4854 147.673C11.4511 147.65 11.4167 147.639 11.3938 147.616L11.4053 147.604ZM7.07676 143.585C6.52711 143.001 6.00036 142.394 5.50797 141.799C5.30185 141.547 5.3362 141.169 5.58812 140.963C5.84005 140.756 6.21793 140.791 6.42405 141.043C6.89355 141.615 7.40884 142.199 7.93559 142.772C8.15316 143.012 8.14171 143.39 7.91269 143.608C7.71802 143.791 7.4432 143.814 7.22563 143.699C7.16837 143.665 7.12257 143.631 7.07676 143.585ZM3.41242 138.913C2.97728 138.226 2.57649 137.527 2.22151 136.84C2.07265 136.554 2.18716 136.188 2.48488 136.039C2.77116 135.89 3.1376 136.004 3.28646 136.302C3.61854 136.966 4.00788 137.63 4.42011 138.283C4.59188 138.558 4.51172 138.924 4.2369 139.096C4.05368 139.211 3.82466 139.211 3.64144 139.119C3.54983 139.073 3.48113 139.004 3.42387 138.913H3.41242ZM0.858833 133.519C0.618361 132.752 0.423693 131.962 0.28628 131.183C0.229025 130.863 0.446595 130.554 0.767225 130.496C1.08785 130.439 1.39703 130.657 1.45429 130.977C1.5917 131.71 1.76347 132.443 1.99249 133.164C2.09555 133.474 1.92378 133.806 1.60315 133.909C1.44284 133.955 1.28252 133.943 1.14511 133.863C1.0077 133.783 0.904638 133.668 0.858833 133.519ZM3.57779e-06 127.576C0.0114546 127.038 0.0572589 126.488 0.114514 125.939C0.148867 125.687 0.183221 125.435 0.217574 125.183C0.263378 124.862 0.572557 124.633 0.893187 124.691C1.21382 124.736 1.44284 125.034 1.38558 125.366C1.35123 125.607 1.31688 125.847 1.29397 126.088C1.23672 126.603 1.19091 127.107 1.17946 127.611C1.17946 127.931 0.893187 128.195 0.572557 128.183C0.480948 128.183 0.38934 128.16 0.309182 128.115C0.114514 128.011 -0.0114475 127.805 3.57779e-06 127.576ZM1.0535 121.679C1.31688 120.889 1.63751 120.145 2.00394 119.446C2.1528 119.16 2.50779 119.045 2.80551 119.194C3.1376 119.32 3.2063 119.698 3.05744 119.996C2.72536 120.637 2.42763 121.324 2.17571 122.057C2.07265 122.366 1.72911 122.526 1.41994 122.423C1.38558 122.423 1.36268 122.4 1.32833 122.389C1.0764 122.252 0.950442 121.954 1.0535 121.679ZM4.12239 117.316C3.88191 117.099 3.87046 116.721 4.08803 116.48C4.62623 115.896 5.23314 115.347 5.88585 114.854C6.14923 114.66 6.51566 114.705 6.71033 114.969C6.905 115.232 6.85919 115.599 6.59582 115.793C6.00036 116.251 5.45071 116.755 4.95831 117.293C4.7751 117.499 4.47737 117.534 4.24835 117.408C4.20254 117.385 4.16819 117.362 4.12239 117.316ZM8.69136 113.766C8.55395 113.469 8.67991 113.114 8.96619 112.976C9.65325 112.656 10.3861 112.346 11.1648 112.06C11.474 111.946 11.8175 112.106 11.9206 112.415C12.0351 112.724 11.8748 113.056 11.5656 113.171C10.8213 113.446 10.1113 113.732 9.47004 114.041C9.29827 114.121 9.09215 114.11 8.93184 114.03C8.82878 113.972 8.73717 113.881 8.67991 113.766H8.69136ZM14.1535 111.751C14.0734 111.43 14.268 111.11 14.5772 111.03C15.3215 110.835 16.0888 110.663 16.8789 110.503C17.1995 110.434 17.5087 110.64 17.5774 110.961C17.6461 111.281 17.44 111.591 17.1193 111.659C16.3521 111.82 15.6078 111.991 14.8635 112.186C14.7146 112.22 14.5658 112.198 14.4398 112.129C14.3024 112.049 14.1879 111.923 14.1421 111.751H14.1535ZM19.8562 110.514C19.7989 110.194 20.0165 109.884 20.3371 109.827L22.6388 109.415C22.9594 109.358 23.2686 109.575 23.3258 109.896C23.3831 110.216 23.1655 110.526 22.8449 110.583L20.5432 110.995C20.4058 111.018 20.2684 110.995 20.1539 110.938C20.005 110.858 19.8905 110.709 19.8562 110.526V110.514ZM25.6046 109.484C25.5473 109.163 25.7535 108.854 26.0741 108.797C26.8299 108.659 27.5856 108.499 28.3528 108.339C28.6735 108.27 28.9827 108.476 29.0514 108.797C29.1201 109.117 28.9139 109.426 28.5933 109.495C27.8261 109.655 27.0589 109.804 26.2916 109.953C26.1542 109.976 26.0168 109.953 25.9023 109.896C25.7535 109.816 25.6389 109.667 25.6046 109.484ZM31.3072 108.27C31.2271 107.949 31.4103 107.629 31.7309 107.548C32.4752 107.354 33.2195 107.148 33.9524 106.919C34.2616 106.827 34.5937 106.999 34.6967 107.308C34.7883 107.617 34.6166 107.949 34.3074 108.052C33.5516 108.281 32.7959 108.499 32.0401 108.694C31.8912 108.728 31.7309 108.716 31.6049 108.636C31.4675 108.556 31.353 108.43 31.3187 108.27H31.3072ZM36.8724 106.541C36.7465 106.232 36.8953 105.888 37.2045 105.773C37.9145 105.487 38.613 105.189 39.3115 104.857C39.6092 104.72 39.9642 104.846 40.1016 105.132C40.239 105.43 40.1131 105.785 39.8268 105.922C39.1054 106.266 38.384 106.587 37.6511 106.873C37.4793 106.941 37.2961 106.919 37.1473 106.838C37.0327 106.77 36.9297 106.667 36.8839 106.541H36.8724ZM42.1285 104.021C41.9567 103.747 42.0369 103.38 42.3117 103.208C42.9644 102.796 43.5942 102.373 44.2011 101.926C44.4645 101.731 44.8424 101.789 45.0256 102.052C45.2203 102.315 45.163 102.682 44.8996 102.876C44.2698 103.346 43.6171 103.792 42.9415 104.216C42.7583 104.331 42.5293 104.331 42.346 104.239C42.2544 104.193 42.1857 104.125 42.1285 104.033V104.021ZM46.7891 100.552C46.56 100.311 46.5715 99.9449 46.8005 99.7159C47.041 99.4869 47.27 99.2578 47.499 99.0174C47.8082 98.6967 48.1059 98.3876 48.3922 98.0669C48.6098 97.8264 48.9877 97.8035 49.2281 98.0326C49.4686 98.2501 49.4915 98.628 49.2625 98.8685C48.9648 99.1891 48.667 99.5212 48.3464 99.8418C48.1059 100.094 47.8655 100.334 47.6135 100.575C47.4189 100.758 47.144 100.792 46.9265 100.666C46.8692 100.643 46.8234 100.598 46.7776 100.552H46.7891ZM50.7168 96.2462C50.4534 96.0515 50.4076 95.6736 50.6023 95.4217C51.0718 94.7919 51.5183 94.1736 51.9306 93.5552C52.1138 93.2804 52.4688 93.2117 52.7551 93.3834C53.0299 93.5667 53.0986 93.9331 52.9154 94.2079C52.4917 94.8492 52.0336 95.4904 51.5412 96.1431C51.358 96.3836 51.0374 96.4409 50.7855 96.3035C50.7626 96.292 50.7282 96.2691 50.7053 96.2576L50.7168 96.2462ZM53.6826 90.5894C54.0376 89.9138 54.3697 89.2267 54.6788 88.5282C54.8048 88.2304 55.1598 88.093 55.4575 88.2305C55.7438 88.3564 55.8927 88.7114 55.7667 89.0091C55.4461 89.7305 55.1025 90.452 54.7361 91.1505C54.5872 91.4368 54.2208 91.5513 53.9345 91.4024C53.6482 91.2421 53.5452 90.8871 53.694 90.6008L53.6826 90.5894ZM55.8927 85.3104C56.1331 84.5776 56.3392 83.8447 56.5225 83.1118C56.6026 82.7912 56.9233 82.608 57.2439 82.6881C57.5645 82.7683 57.7592 83.0889 57.679 83.4095C57.4844 84.1653 57.2668 84.9325 57.0263 85.6883C56.9232 85.9975 56.5912 86.1693 56.282 86.0662C56.2476 86.0662 56.2133 86.0433 56.1789 86.0204C55.9385 85.883 55.8125 85.5967 55.8927 85.3219V85.3104ZM57.221 79.7338C57.3469 78.9665 57.45 78.2108 57.5302 77.455C57.5645 77.1344 57.8622 76.8939 58.1829 76.9283C58.5035 76.9626 58.744 77.2603 58.7096 77.581C58.618 78.3596 58.5149 79.1383 58.389 79.917C58.3317 80.2376 58.034 80.4552 57.7134 80.4094C57.6447 80.4094 57.5874 80.375 57.5302 80.3407C57.3126 80.2262 57.1866 79.9857 57.2324 79.7223L57.221 79.7338ZM57.8279 73.9968C57.8737 73.2181 57.908 72.4509 57.9309 71.6837C57.9424 71.3516 58.2172 71.0997 58.5378 71.1111C58.8699 71.1226 59.1219 71.3974 59.1104 71.718C59.0875 72.4967 59.0532 73.2754 58.9959 74.0655C58.973 74.3976 58.6982 74.638 58.3661 74.6266C58.2745 74.6266 58.1943 74.5922 58.1256 74.5579C57.9309 74.4548 57.805 74.2373 57.8164 73.9968H57.8279ZM58.0226 68.1567C58.034 67.3781 58.0569 66.6108 58.0798 65.8551C58.0798 65.523 58.3546 65.2711 58.6867 65.2825C59.0188 65.2825 59.2707 65.5573 59.2593 65.8894C59.2364 66.6452 59.2249 67.4124 59.202 68.214C59.202 68.5461 58.9272 68.7865 58.5951 68.7751C58.5035 68.7751 58.4119 68.7522 58.3317 68.7064C58.1371 68.6033 58.0111 68.3858 58.0111 68.1567H58.0226ZM58.2172 62.3396C58.263 61.5495 58.3203 60.7708 58.4004 59.9921C58.4348 59.6715 58.7211 59.431 59.0531 59.4654C59.3738 59.4997 59.6143 59.786 59.5799 60.1181C59.4997 60.8739 59.4425 61.6411 59.3967 62.4198C59.3738 62.7404 59.099 62.9923 58.7669 62.9809C58.6753 62.9809 58.5951 62.9465 58.5264 62.9121C58.3317 62.8091 58.2058 62.5915 58.2172 62.351V62.3396ZM58.9157 56.4767C59.076 55.6751 59.2593 54.8964 59.4654 54.1635C59.557 53.8544 59.8776 53.6711 60.1983 53.7513C60.5074 53.8429 60.6907 54.1635 60.6105 54.4842C60.4158 55.1941 60.2326 55.9385 60.0837 56.7057C60.0265 57.0263 59.7059 57.2324 59.3852 57.1752C59.328 57.1637 59.2707 57.1408 59.2135 57.1179C58.9959 57.0034 58.8585 56.74 58.9157 56.4881V56.4767ZM60.6907 50.7969C60.8968 50.3503 61.1143 49.8923 61.3548 49.4571C61.4922 49.1938 61.6411 48.9418 61.8014 48.6785C61.9732 48.3922 62.3396 48.312 62.6144 48.4724C62.9007 48.6441 62.9923 48.9991 62.8205 49.2854C62.6717 49.5259 62.5343 49.7778 62.3969 50.0183C62.1678 50.4419 61.9617 50.8656 61.767 51.2893C61.6296 51.587 61.2861 51.713 60.9884 51.587C60.9769 51.587 60.9655 51.5756 60.954 51.5641C60.6792 51.4153 60.5647 51.0832 60.7021 50.7969H60.6907ZM63.9542 46.5829C63.7023 46.3768 63.6679 45.9989 63.8855 45.747C64.3893 45.1515 64.939 44.5561 65.523 43.995C65.752 43.766 66.1299 43.7774 66.3589 44.0064C66.588 44.2469 66.5765 44.6133 66.3475 44.8424C65.7978 45.3806 65.2711 45.9302 64.7901 46.5028C64.6069 46.7203 64.2977 46.7776 64.0573 46.6402C64.0229 46.6173 63.9886 46.5944 63.9542 46.5715V46.5829ZM68.1224 42.5178C67.9277 42.2544 67.9964 41.8765 68.2598 41.6933C68.9125 41.2238 69.611 40.8116 70.3324 40.4452C70.6187 40.2963 70.9852 40.4108 71.1226 40.7085C71.2714 40.9948 71.1569 41.3612 70.8592 41.4987C70.195 41.8422 69.5423 42.2315 68.9469 42.6552C68.7522 42.7926 68.5117 42.7926 68.3171 42.6896C68.2369 42.6438 68.1682 42.5865 68.1109 42.5178H68.1224ZM73.2868 39.8841C73.2067 39.5634 73.3899 39.2428 73.7105 39.1626C74.4663 38.9565 75.2564 38.7962 76.0694 38.6817C76.3901 38.6359 76.6878 38.8649 76.7336 39.1855C76.7794 39.5062 76.5504 39.8039 76.2297 39.8497C75.4625 39.9642 74.7182 40.1131 74.0197 40.2963C73.8708 40.3421 73.7105 40.3192 73.5845 40.2505C73.4471 40.1703 73.3326 40.0444 73.2983 39.8841H73.2868ZM79.0352 39.0367C79.0352 38.7046 79.3101 38.4412 79.6307 38.4527C80.3979 38.4527 81.1995 38.4985 82.0125 38.5672C82.3446 38.6015 82.5736 38.8878 82.5507 39.2084C82.5164 39.5291 82.2301 39.7695 81.9095 39.7466C81.1308 39.6779 80.3636 39.6436 79.6307 39.6321C79.5276 39.6321 79.436 39.6092 79.3559 39.5634C79.1727 39.4604 79.0467 39.2657 79.0467 39.0367H79.0352ZM84.8409 39.5405C84.8982 39.2199 85.2188 39.0138 85.5395 39.071C86.3296 39.2199 87.0968 39.4031 87.8526 39.5978C88.1732 39.6779 88.3564 39.9986 88.2763 40.3192C88.1961 40.6398 87.8755 40.823 87.5548 40.7429C86.8334 40.5597 86.0777 40.3879 85.3104 40.239C85.2532 40.2276 85.1959 40.2047 85.1387 40.1818C84.9211 40.0673 84.7837 39.8039 84.8409 39.552V39.5405ZM90.4978 40.9719C90.6008 40.6627 90.9444 40.491 91.2535 40.6055C92.0437 40.8803 92.788 41.1437 93.475 41.4185C93.7842 41.533 93.9331 41.8765 93.8071 42.1857C93.6926 42.4949 93.3491 42.6438 93.0399 42.5178C92.3757 42.2544 91.6543 41.9911 90.8757 41.7277C90.8413 41.7277 90.8069 41.7048 90.784 41.6933C90.5321 41.5559 90.4062 41.2582 90.5092 40.9834L90.4978 40.9719Z" fill="black"/>
<path d="M19.7187 153.192C20.131 153.41 20.36 153.524 20.36 153.524C20.6577 153.673 21.0127 153.547 21.1501 153.261C21.299 152.963 21.1501 152.62 20.8867 152.471C20.8867 152.471 20.5089 152.288 19.8676 151.933C19.5813 151.772 19.2263 151.875 19.066 152.162C18.9057 152.448 19.0088 152.803 19.295 152.963C19.4554 153.055 19.5928 153.124 19.7187 153.192Z" fill="black"/>
<path d="M202.649 172.865C200.302 173.3 198.458 175.144 198.035 177.48C198.023 177.583 197.863 177.583 197.851 177.48C197.416 175.133 195.573 173.289 193.237 172.865C193.134 172.854 193.134 172.693 193.237 172.671C195.584 172.247 197.428 170.403 197.851 168.056C197.863 167.953 198.023 167.953 198.035 168.056C198.47 170.403 200.313 172.247 202.649 172.671C202.753 172.693 202.753 172.842 202.649 172.865Z" fill="white"/>
<path d="M101.285 99.9334C101.285 99.9334 81.898 92.078 69.1301 110.743C56.3621 129.408 47.0066 157.601 51.4725 165.64C55.9385 173.678 68.2025 171.514 68.2025 171.514L66.691 190.019H160.704L151.234 128.641C151.234 128.641 150.295 108.51 101.285 99.9449V99.9334Z" fill="black"/>
<path d="M124.84 107.663V102.224C124.84 102.224 134.195 108.396 141.283 93.8071C145.177 85.7914 147.306 71.7867 147.306 71.7867C147.306 71.7867 124.485 55.8468 115.427 61.8243C106.369 67.8018 109.816 87.0052 109.816 87.0052L101.296 99.922C101.296 99.922 105.464 114.911 124.851 107.663H124.84Z" fill="white"/>
<path d="M115.152 110.079C112.495 110.079 110.102 109.541 107.984 108.464C102.476 105.659 100.93 100.277 100.861 100.048C100.827 99.9334 100.85 99.796 100.918 99.693L109.335 86.925C108.991 84.8753 106.335 67.3093 115.163 61.4808C124.359 55.4117 146.585 70.7905 147.524 71.4546C147.661 71.5462 147.73 71.7066 147.707 71.8669C147.684 72.0043 145.532 86.0318 141.65 94.0132C139.05 99.3723 135.833 102.602 132.111 103.621C129.008 104.468 126.42 103.529 125.252 102.957V107.663C125.252 107.846 125.137 108.006 124.977 108.064C121.393 109.403 118.106 110.079 115.152 110.079ZM101.754 99.9907C102.075 100.941 103.77 105.35 108.396 107.697C112.587 109.827 117.98 109.713 124.416 107.365V102.224C124.416 102.063 124.507 101.926 124.645 101.846C124.782 101.766 124.954 101.777 125.08 101.869C125.114 101.892 128.137 103.827 131.928 102.785C135.397 101.823 138.42 98.7425 140.905 93.6353C144.432 86.3754 146.528 73.9624 146.848 72.0043C144.49 70.4011 123.912 56.7515 115.667 62.2022C106.942 67.9621 110.205 86.7647 110.239 86.9479C110.262 87.051 110.239 87.1655 110.171 87.2571L101.766 100.002L101.754 99.9907Z" fill="black"/>
<path d="M130.714 84.0164C131.448 84.0164 132.042 83.4217 132.042 82.6881C132.042 81.9545 131.448 81.3598 130.714 81.3598C129.98 81.3598 129.386 81.9545 129.386 82.6881C129.386 83.4217 129.98 84.0164 130.714 84.0164Z" fill="black"/>
<path d="M141.272 85.7112C142.005 85.7112 142.6 85.1165 142.6 84.3829C142.6 83.6493 142.005 83.0546 141.272 83.0546C140.538 83.0546 139.943 83.6493 139.943 84.3829C139.943 85.1165 140.538 85.7112 141.272 85.7112Z" fill="black"/>
<path d="M150.833 67.6529C150.833 67.6529 153.696 72.2448 149.173 73.825C143.677 75.4282 142.497 70.779 142.497 70.779C142.497 70.779 140.459 73.6303 137.333 72.2791C134.206 70.9279 134.882 68.4201 134.882 68.4201C134.882 68.4201 133.05 72.1417 129.649 70.9164C126.248 69.6912 126.935 67.1834 126.935 67.1834C126.935 67.1834 125.847 71.6035 123.408 71.26C120.969 70.9164 118.988 67.1147 118.988 67.1147C118.988 67.1147 120.282 81.7148 117.293 79.8826C114.305 78.0505 116.205 75.1991 113.892 74.7182C111.579 74.2372 110.022 76.2755 110.56 80.4895C111.098 84.7035 113.961 85.07 113.961 85.07L109.793 87.0166C109.793 87.0166 103.563 84.234 105.533 79.1383C101.525 74.5235 102.796 69.7599 105.144 69.0843C101.319 65.2825 103.495 58.492 108.041 58.8928C107.022 53.2589 109.873 50.4648 115.713 52.0336C119.583 47.3501 124.416 48.1632 126.649 50.9458C131.332 46.5257 138.398 48.1632 139.955 51.9649C144.913 48.2891 149.597 54.0032 148.852 56.3163C156.777 57.0378 153.788 66.5078 150.799 67.6643L150.833 67.6529Z" fill="black"/>
<path d="M109.804 87.4861L109.621 87.406C109.552 87.3716 103.243 84.486 105.052 79.2185C102.899 76.642 102.04 73.6761 102.762 71.2485C103.082 70.1836 103.666 69.3705 104.422 68.924C102.407 66.5421 102.441 63.4045 103.38 61.3892C104.228 59.557 105.762 58.492 107.537 58.4462C107.148 55.7667 107.663 53.694 109.014 52.4459C110.434 51.1405 112.701 50.8313 115.564 51.5412C117.396 49.4113 119.641 48.2433 121.908 48.2433C121.919 48.2433 121.942 48.2433 121.954 48.2433C123.775 48.2548 125.481 49.0106 126.695 50.316C129.088 48.2433 132.271 47.4074 135.317 48.0601C137.516 48.5296 139.279 49.732 140.138 51.3008C142.279 49.9266 144.661 49.9839 146.734 51.4725C148.371 52.652 149.459 54.53 149.368 55.9155C153.169 56.4423 154.097 58.973 154.303 60.4731C154.715 63.4274 153.124 66.7483 151.395 67.8132C151.784 68.5804 152.471 70.2981 151.921 71.8554C151.543 72.9318 150.65 73.7334 149.276 74.2143C147.352 74.7754 145.715 74.6724 144.409 73.9281C143.253 73.2639 142.623 72.2448 142.314 71.5691C141.466 72.3936 139.6 73.7219 137.138 72.6455C135.329 71.8554 134.676 70.6874 134.47 69.7599C133.451 70.9737 131.71 72.0959 129.489 71.2943C127.84 70.6989 127.061 69.8057 126.717 68.9927C126.111 70.321 125.011 71.9012 123.328 71.6608C121.748 71.4432 120.385 69.966 119.526 68.7865C119.755 72.3249 119.984 79.2643 118.312 80.2949C118.049 80.4552 117.614 80.5811 117.041 80.2376C115.324 79.1841 115.06 77.7642 114.866 76.7221C114.682 75.7259 114.568 75.2907 113.778 75.119C113.011 74.9587 112.381 75.119 111.888 75.5656C110.995 76.4015 110.663 78.1192 110.961 80.4094C111.453 84.2111 113.881 84.6005 113.984 84.6119L115.415 84.818L109.77 87.4632L109.804 87.4861ZM107.674 59.3051C106.186 59.3051 104.892 60.1982 104.17 61.7556C103.289 63.645 103.323 66.6452 105.464 68.7751L105.98 69.2904L105.281 69.4965C104.537 69.7141 103.896 70.4584 103.598 71.5004C102.945 73.7105 103.792 76.4702 105.877 78.8635L106.048 79.0581L105.957 79.2986C104.308 83.5584 108.842 86.0662 109.816 86.5471L112.862 85.1272C111.877 84.6119 110.526 83.3866 110.159 80.5582C109.827 77.9817 110.251 76.0007 111.35 74.9701C112.049 74.3289 112.965 74.0998 113.995 74.306C115.381 74.5922 115.564 75.6114 115.747 76.5847C115.931 77.6039 116.125 78.6574 117.522 79.5162C117.763 79.6651 117.854 79.6078 117.889 79.5849C119.057 78.8635 118.988 71.8783 118.564 67.149L118.37 64.9962L119.366 66.92C119.366 66.92 121.267 70.5271 123.465 70.8363C125.481 71.1111 126.511 67.1261 126.523 67.0803L127.347 67.2979C127.347 67.2979 127.347 67.2979 127.347 67.3208C127.301 67.4926 126.912 69.4965 129.798 70.5271C132.798 71.6035 134.436 68.3858 134.504 68.2483L135.306 68.5461C135.283 68.6262 134.779 70.7103 137.504 71.9012C140.264 73.1036 142.073 70.6531 142.154 70.55L142.692 69.8057L142.921 70.6874C142.921 70.6874 143.367 72.3593 144.89 73.2181C145.99 73.8479 147.398 73.9166 149.059 73.4242C150.146 73.0463 150.856 72.428 151.154 71.6035C151.738 69.9316 150.49 67.9048 150.478 67.8819L150.204 67.4468L150.685 67.2635C152.23 66.6681 153.857 63.3358 153.479 60.6219C153.25 59.0302 152.276 57.0607 148.852 56.74L148.314 56.6942L148.475 56.1789C148.772 55.2628 147.925 53.3963 146.253 52.194C145.142 51.3924 142.886 50.3503 140.241 52.3085L139.795 52.6405L139.588 52.1367C138.959 50.5908 137.298 49.3884 135.157 48.9304C132.248 48.3006 129.191 49.1709 126.969 51.2664L126.637 51.587L126.351 51.2206C125.286 49.8923 123.694 49.1365 121.977 49.1251C120.5 49.1251 118.267 49.6633 116.079 52.3199L115.908 52.5375L115.644 52.4688C112.942 51.7474 110.869 51.9649 109.632 53.11C108.419 54.2322 108.029 56.2133 108.51 58.847L108.613 59.3967L108.052 59.3509C107.938 59.3509 107.823 59.3394 107.709 59.3394L107.674 59.3051Z" fill="black"/>
<path d="M134.229 92.1925C133.084 92.1925 132.317 91.4253 132.031 90.8871C131.916 90.681 131.996 90.4176 132.203 90.3031C132.409 90.1886 132.672 90.2687 132.787 90.4749C132.867 90.6123 133.6 91.8261 135.18 91.1047C135.684 90.8756 135.626 89.6504 135.558 88.2304C135.455 86.1578 135.317 83.3179 136.829 80.9361C137.985 79.1039 139.955 78.1192 141.821 78.4169C145.314 78.978 145.635 82.0125 145.635 82.0354C145.658 82.2759 145.486 82.482 145.245 82.5049C145.005 82.5278 144.799 82.356 144.776 82.1156C144.776 82.0125 144.49 79.7109 141.673 79.2528C140.138 79.0009 138.512 79.8483 137.539 81.3827C136.176 83.5355 136.302 86.112 136.394 88.1732C136.485 89.971 136.542 91.3909 135.512 91.8719C135.042 92.0895 134.607 92.1811 134.218 92.1811L134.229 92.1925Z" fill="black"/>
<path d="M134.184 79.791C134.023 79.791 133.863 79.6994 133.794 79.5391C133.726 79.3788 131.939 75.7373 127.416 77.7184C127.198 77.81 126.947 77.7184 126.855 77.5008C126.763 77.2832 126.855 77.0313 127.072 76.9397C132.374 74.6266 134.55 79.1383 134.573 79.1841C134.676 79.4017 134.573 79.6536 134.367 79.7567C134.31 79.7796 134.241 79.8025 134.184 79.8025V79.791Z" fill="black"/>
<path d="M130.714 96.8302C126.821 96.8302 125.71 93.2689 125.687 93.2231C125.618 92.9941 125.744 92.7536 125.973 92.6964C126.202 92.6277 126.443 92.7536 126.511 92.9826C126.557 93.143 127.805 97.0134 132.558 95.708C132.787 95.6507 133.027 95.7767 133.084 96.0057C133.142 96.2347 133.016 96.4638 132.787 96.5325C132.019 96.7386 131.332 96.8302 130.714 96.8302Z" fill="black"/>
<path d="M124.84 102.659C124.759 102.659 124.691 102.636 124.622 102.602C124.324 102.43 117.465 98.2616 117.877 91.952C117.889 91.7116 118.106 91.5398 118.335 91.5512C118.576 91.5627 118.748 91.7688 118.736 92.0093C118.347 97.7806 124.988 101.823 125.057 101.869C125.263 101.995 125.332 102.258 125.206 102.453C125.126 102.59 124.988 102.659 124.84 102.659Z" fill="black"/>
<path d="M94.0476 132.683C94.0476 132.683 97.3112 131.16 97.8036 130.336C98.296 129.512 98.525 126.317 101.479 120.248C103.334 116.446 103.025 107.606 104.617 107.777C106.357 107.961 107.571 110.617 107.846 112.644C108.155 114.877 107.457 117.889 108.35 118.255L114.671 116.297C114.671 116.297 116.961 115.576 117.66 117.614C118.095 118.896 117.705 119.732 117.362 120.408C117.362 120.408 118.702 120.557 119.354 121.679C120.202 123.133 119.045 124.862 118.999 124.988C118.954 125.114 120.122 124.576 120.855 126.328C121.656 128.252 119.87 129.214 119.87 129.214C119.87 129.214 121.095 130.645 120.076 133.05C119.435 134.55 113.331 138.924 110.091 139.44C106.987 139.932 107.159 139.806 106.449 140.161L98.1929 144.306L94.0476 132.672V132.683Z" fill="white"/>
<path d="M98.1929 144.753C98.1929 144.753 98.0898 144.753 98.0326 144.719C97.9181 144.673 97.8265 144.581 97.7921 144.467L93.6468 132.832C93.5781 132.626 93.6697 132.397 93.8644 132.306C95.1698 131.699 97.1394 130.611 97.4257 130.13C97.5516 129.924 97.6776 129.42 97.8494 128.779C98.2845 127.107 99.0288 124.301 101.09 120.076C101.949 118.312 102.338 115.404 102.67 112.827C103.117 109.461 103.437 107.228 104.651 107.365C106.781 107.594 107.995 110.697 108.258 112.598C108.384 113.514 108.35 114.556 108.316 115.473C108.293 116.194 108.247 117.454 108.43 117.797L114.534 115.908C115.461 115.61 117.396 115.564 118.049 117.499C118.438 118.644 118.232 119.492 117.957 120.133C118.473 120.305 119.24 120.671 119.709 121.484C120.076 122.114 120.339 123.156 119.652 124.656C120.351 124.817 120.877 125.32 121.232 126.191C121.862 127.702 121.129 128.813 120.442 129.363C120.786 129.992 121.255 131.355 120.442 133.245C119.744 134.882 113.492 139.359 110.136 139.886C109.197 140.035 108.568 140.127 108.11 140.195C107.407 140.295 106.911 140.417 106.621 140.562L98.3647 144.707C98.3074 144.741 98.2387 144.753 98.17 144.753H98.1929ZM94.5743 132.913L98.4334 143.734L106.266 139.806C106.827 139.531 106.942 139.508 108.018 139.359C108.464 139.291 109.106 139.199 110.033 139.05C113.217 138.546 119.137 134.195 119.687 132.913C120.58 130.806 119.595 129.569 119.549 129.523C119.469 129.42 119.435 129.294 119.458 129.168C119.48 129.042 119.561 128.928 119.675 128.87C119.824 128.79 121.095 128.034 120.465 126.523C120.007 125.424 119.423 125.446 119.137 125.469C119.022 125.469 118.793 125.492 118.644 125.286C118.564 125.16 118.541 125 118.599 124.862C118.599 124.84 118.633 124.805 118.667 124.736C119.469 123.328 119.286 122.435 118.988 121.931C118.45 121.015 117.328 120.866 117.316 120.866C117.179 120.855 117.053 120.763 116.984 120.648C116.915 120.522 116.915 120.385 116.984 120.259C117.293 119.629 117.637 118.919 117.259 117.786C116.709 116.16 114.877 116.709 114.808 116.732L108.487 118.69C108.396 118.713 108.293 118.713 108.201 118.679C107.377 118.347 107.422 117.076 107.48 115.45C107.514 114.568 107.548 113.572 107.434 112.724C107.148 110.675 105.98 108.373 104.583 108.224C104.136 108.419 103.781 111.144 103.541 112.942C103.197 115.587 102.796 118.576 101.88 120.454C99.8533 124.61 99.1319 127.359 98.6967 128.996C98.4906 129.786 98.3647 130.256 98.1814 130.565C97.7234 131.332 95.5477 132.454 94.5973 132.913H94.5743Z" fill="black"/>
<path d="M111.969 123.225C111.808 123.225 111.648 123.133 111.579 122.973C111.488 122.755 111.579 122.503 111.797 122.412L117.19 120.042C117.408 119.95 117.66 120.041 117.751 120.259C117.843 120.477 117.751 120.729 117.534 120.82L112.14 123.191C112.14 123.191 112.026 123.225 111.969 123.225Z" fill="black"/>
<path d="M114.373 128.218C114.224 128.218 114.087 128.149 114.007 128.011C113.881 127.805 113.95 127.542 114.156 127.427L118.782 124.645C118.988 124.519 119.251 124.588 119.366 124.794C119.492 125 119.423 125.263 119.217 125.378L114.591 128.16C114.522 128.206 114.442 128.218 114.373 128.218Z" fill="black"/>
<path d="M115.736 132.214C115.587 132.214 115.45 132.145 115.369 132.008C115.244 131.802 115.312 131.538 115.507 131.412L119.641 128.859C119.847 128.733 120.11 128.802 120.225 128.996C120.351 129.202 120.282 129.466 120.087 129.592L115.953 132.145C115.885 132.191 115.805 132.214 115.724 132.214H115.736Z" fill="black"/>
<path d="M105.922 119.503C105.739 119.503 105.579 119.389 105.522 119.206C105.441 118.977 105.567 118.736 105.796 118.667L108.224 117.854C108.453 117.786 108.694 117.9 108.762 118.129C108.842 118.358 108.716 118.599 108.487 118.667L106.06 119.48C106.06 119.48 105.968 119.503 105.922 119.503Z" fill="black"/>
<path d="M68.2026 171.926C68.0766 171.926 67.9392 171.869 67.859 171.755C67.7216 171.56 67.756 171.296 67.9506 171.159L100.746 146.768L92.5819 130.737L67.4124 142.806C67.1949 142.909 66.9429 142.818 66.8399 142.6C66.7368 142.383 66.8284 142.131 67.046 142.028L92.5933 129.775C92.7994 129.672 93.0514 129.763 93.1659 129.97L101.685 146.688C101.777 146.871 101.731 147.1 101.56 147.226L68.4774 171.823C68.3972 171.88 68.3056 171.903 68.2255 171.903L68.2026 171.926Z" fill="white"/>
<path d="M270.154 105.441C264.256 100.712 256.527 98.0097 248.396 97.815C240.598 97.6318 229.514 97.5287 220.971 98.044C216.471 98.3188 212.28 99.8876 208.501 102.705C203.932 106.106 200.451 111.201 198.722 117.03L191.176 142.383C191.084 142.692 191.256 143.012 191.565 143.115L195 144.226L192.87 150.696C192.389 152.162 191.37 153.376 190.019 154.12L166.51 167.071C166.315 167.174 166.189 167.392 166.201 167.621C166.212 167.85 166.35 168.044 166.556 168.136L181.82 174.766C180.32 175.671 179.049 176.518 178.316 177.137C177.938 177.457 177.824 177.915 178.03 178.339C178.556 179.427 181.419 180.102 185.313 179.335L186.584 179.083C187.202 179.358 189.721 180.606 192.699 183.664C194.347 185.358 196.832 185.851 199.134 185.851C200.542 185.851 201.871 185.668 202.913 185.473C203.485 185.656 204.081 185.759 204.699 185.759C204.734 185.759 204.768 185.759 204.802 185.759C207.024 185.725 208.902 185.129 210.574 184.488L211.203 189.492C211.238 189.79 211.49 190.008 211.787 190.008H269.615C269.924 190.008 270.188 189.767 270.211 189.446L272.421 152.723L275.169 153.021C275.478 153.055 275.765 152.837 275.822 152.54C275.833 152.448 277.539 142.886 279.165 124.21C279.795 117.03 276.772 110.709 270.188 105.43L270.154 105.441ZM204.768 184.568C201.184 184.591 198.081 180.286 196.58 178.201C196.214 177.686 195.962 177.343 195.779 177.159C195.447 176.827 194.874 176.69 194.038 176.69C192.538 176.69 190.191 177.137 186.824 177.812L185.072 178.167C181.671 178.831 179.724 178.259 179.209 177.915C180.95 176.507 185.862 173.667 189.927 171.72C192.344 170.564 195.092 170.369 197.668 171.171C201.401 172.339 204.15 173.22 205.844 173.793C207.677 174.411 209.692 174.423 211.524 173.816L246.198 162.388C247.286 162.033 248.099 161.105 248.316 159.983L250.16 150.536L249.828 150.49C249.668 150.467 249.519 150.387 249.427 150.249C249.335 150.112 249.29 149.952 249.324 149.791L254.03 123.797C254.088 123.477 254.397 123.271 254.717 123.317C255.038 123.374 255.256 123.683 255.198 124.004L250.607 149.391L270.279 151.979C270.543 152.013 270.738 152.23 270.783 152.482L271.081 152.528L265.138 169.693C263.592 174.64 259.264 178.121 254.099 178.556C240.633 179.679 217.742 181.58 215.704 181.637C214.33 181.671 212.898 182.255 211.398 182.862C209.509 183.629 207.367 184.5 204.791 184.545L204.768 184.568ZM193.534 182.828C191.496 180.721 189.653 179.427 188.416 178.705C190.889 178.213 193.615 177.732 194.622 177.892C194.622 177.892 194.634 177.892 194.645 177.892C194.783 177.915 194.886 177.95 194.954 177.995C195.069 178.11 195.344 178.488 195.63 178.889C196.718 180.4 198.596 183.011 200.978 184.545C198.493 184.82 195.344 184.683 193.546 182.828H193.534ZM209.119 173.048C208.135 173.094 207.15 172.991 206.211 172.671C205.272 172.35 203.989 171.938 202.42 171.434C205.043 170.254 207.081 168.125 208.169 165.468L209.119 173.048ZM202.718 129.878C202.684 129.557 202.913 129.26 203.233 129.225C203.566 129.191 203.852 129.42 203.886 129.752L205.993 148.291C205.993 148.291 205.993 148.303 205.993 148.314L207.78 162.479L207.619 163.269C206.863 166.934 204.172 169.831 200.577 170.85C199.775 170.598 198.928 170.323 198.012 170.037C195.149 169.144 192.092 169.361 189.412 170.644C187.477 171.571 185.152 172.808 183.08 173.999L168.125 167.506L190.58 155.128C192.195 154.234 193.397 152.78 193.981 151.028L196.111 144.558L204.699 147.329L202.718 129.855V129.878Z" fill="black"/>
<path d="M195.619 178.889C195.332 178.488 195.069 178.11 194.943 177.995C194.874 177.95 194.771 177.915 194.634 177.892C194.634 177.892 194.622 177.892 194.611 177.892C193.603 177.732 190.878 178.224 188.404 178.705C189.641 179.438 191.485 180.721 193.523 182.828C195.321 184.683 198.47 184.809 200.955 184.545C198.561 183.022 196.683 180.412 195.607 178.889H195.619Z" fill="white"/>
<path d="M193.97 151.051C193.397 152.803 192.183 154.257 190.569 155.15L168.113 167.529L183.068 174.022C185.141 172.819 187.465 171.594 189.401 170.667C192.092 169.373 195.149 169.167 198 170.06C198.916 170.346 199.775 170.621 200.565 170.873C204.15 169.842 206.852 166.945 207.608 163.292L207.768 162.502L205.982 148.337C205.982 148.337 205.982 148.326 205.982 148.314L203.875 129.775C203.84 129.454 203.554 129.214 203.222 129.248C202.901 129.283 202.661 129.58 202.707 129.901L204.688 147.375L196.099 144.604L193.97 151.074V151.051Z" fill="white"/>
<path d="M211.364 182.885C212.864 182.267 214.295 181.694 215.669 181.66C217.719 181.602 240.61 179.702 254.065 178.579C259.229 178.144 263.558 174.675 265.104 169.716L271.047 152.551L270.749 152.505C270.715 152.253 270.52 152.036 270.245 152.001L250.572 149.413L255.164 124.026C255.221 123.706 255.004 123.397 254.683 123.339C254.363 123.282 254.053 123.5 253.996 123.82L249.29 149.814C249.255 149.975 249.29 150.135 249.393 150.272C249.496 150.41 249.633 150.49 249.794 150.513L250.126 150.559L248.282 160.006C248.064 161.128 247.251 162.055 246.164 162.41L211.49 173.839C209.658 174.446 207.642 174.434 205.81 173.816C204.115 173.243 201.367 172.361 197.634 171.193C195.057 170.392 192.309 170.587 189.893 171.743C185.839 173.69 180.927 176.53 179.175 177.938C179.702 178.282 181.637 178.854 185.038 178.19L186.79 177.835C190.156 177.159 192.504 176.713 194.004 176.713C194.851 176.713 195.424 176.862 195.745 177.182C195.928 177.366 196.18 177.709 196.546 178.224C198.046 180.308 201.149 184.614 204.734 184.591C207.299 184.545 209.451 183.675 211.341 182.908L211.364 182.885Z" fill="white"/>
<path d="M245.843 99.7044L243.369 86.1578L242.327 81.3255C242.224 81.3255 242.11 81.3484 242.018 81.3484C240.759 81.3484 240.037 80.9705 240.003 80.9476C239.717 80.7873 239.614 80.4323 239.762 80.146C239.911 79.8597 240.278 79.7567 240.564 79.9055C240.587 79.9055 241.343 80.2834 242.671 80.1231C242.671 80.1231 242.694 80.1231 242.705 80.1116C245.202 79.6765 248.042 78.0161 247.366 72.5425C247.022 69.737 245.213 68.5804 243.564 68.672C241.778 68.7751 239.854 70.3897 239.831 73.6876C239.831 73.9166 239.694 74.1227 239.488 74.2143C239.281 74.3174 239.041 74.2831 238.858 74.1456C235.377 71.3401 234.667 65.2024 234.529 63.0725C232.182 63.645 224.281 65.4199 215.211 66.0154V68.8782C216.127 68.6606 218.005 68.3858 219.414 69.3362C220.422 70.0118 220.983 71.1684 221.074 72.7486C221.143 74.0082 220.742 75.2678 220.364 76.4931C219.769 78.394 219.448 79.5963 220.399 80.2491C221.429 80.959 222.563 80.2605 222.609 80.2376C222.884 80.0658 223.25 80.146 223.422 80.4208C223.593 80.6957 223.513 81.0621 223.239 81.2339C223.193 81.2682 222.414 81.7491 221.406 81.7491C220.88 81.7491 220.296 81.6117 219.723 81.2224C218.005 80.0429 218.624 78.0505 219.231 76.1381C219.586 75.0159 219.941 73.8479 219.883 72.8059C219.815 71.615 219.437 70.779 218.75 70.3095C217.559 69.508 215.75 69.9316 215.211 70.092V83.776C215.211 83.8447 215.051 87.7495 217.731 90.3374C219.643 92.1811 222.54 92.9483 226.342 92.6277H226.365H226.468C227.201 92.5475 231.918 91.952 234.209 87.7152C234.369 87.4289 234.724 87.3144 235.01 87.4747C235.296 87.635 235.411 87.99 235.251 88.2763C232.915 92.6162 228.495 93.5552 226.96 93.7499L226.559 101.548C226.445 103.838 227.601 105.957 229.525 106.941C231.38 107.903 233.785 108.235 236.682 107.949C239.533 107.663 241.972 106.724 243.908 105.144C245.488 103.861 246.232 101.766 245.854 99.6586L245.843 99.7044ZM227.67 83.4439C225.815 85.883 223.41 86.3525 221.841 86.3525C220.902 86.3525 220.261 86.1922 220.193 86.1693C219.872 86.0891 219.689 85.757 219.78 85.4478C219.86 85.1272 220.181 84.944 220.502 85.0242C220.651 85.07 224.258 85.9631 226.731 82.7225C226.926 82.4591 227.304 82.4133 227.556 82.608C227.819 82.8026 227.865 83.1805 227.67 83.4325V83.4439Z" fill="white"/>
<path d="M217.215 72.5768C216.494 72.5768 215.91 73.1608 215.91 73.8823C215.91 74.6037 216.494 75.1877 217.215 75.1877C217.937 75.1877 218.521 74.6037 218.521 73.8823C218.521 73.1608 217.937 72.5768 217.215 72.5768Z" fill="black"/>
<path d="M226.731 82.7225C224.258 85.9631 220.651 85.0585 220.502 85.0241C220.181 84.944 219.86 85.1272 219.78 85.4478C219.7 85.7685 219.883 86.0891 220.193 86.1692C220.261 86.1922 220.902 86.3525 221.841 86.3525C223.41 86.3525 225.815 85.883 227.67 83.4439C227.865 83.1805 227.819 82.8141 227.556 82.6194C227.292 82.4248 226.926 82.4706 226.731 82.7339V82.7225Z" fill="black"/>
<path d="M250.378 58.2745C250.481 57.0721 250.435 54.049 248.053 51.1175C244.629 46.915 237.942 44.7393 228.185 44.6591C215.509 44.5446 206.692 49.1251 205.856 53.4192C205.547 54.9766 206.337 56.3278 208.043 57.1981C207.436 58.4577 206.245 61.5266 207.619 63.7481C208.638 65.397 210.803 66.1757 214.043 66.0841V83.776C214.043 83.9592 213.849 88.2419 216.918 91.2077C218.967 93.1888 221.956 94.0934 225.792 93.8873L225.391 101.525C225.254 104.273 226.662 106.838 228.998 108.029C230.602 108.854 232.537 109.266 234.781 109.266C235.434 109.266 236.11 109.232 236.808 109.163C239.9 108.854 242.545 107.823 244.663 106.106C246.576 104.548 247.48 102.018 247.022 99.4868L244.629 86.3983C246.622 85.4936 254.408 81.3026 255.107 71.0653C255.771 61.2403 251.878 58.8241 250.389 58.263L250.378 58.2745ZM229.514 106.987C227.59 106.003 226.433 103.884 226.548 101.594L226.949 93.7957C228.472 93.601 232.903 92.6506 235.239 88.3221C235.4 88.0358 235.285 87.6808 234.999 87.5205C234.712 87.3602 234.358 87.4747 234.197 87.761C231.907 91.9978 227.189 92.5933 226.456 92.662H226.353H226.33C222.529 92.9826 219.631 92.2154 217.719 90.3718C215.04 87.7839 215.2 83.879 215.2 83.8103V70.1263C215.75 69.966 217.559 69.5423 218.738 70.3439C219.425 70.8019 219.803 71.6493 219.872 72.8402C219.929 73.8823 219.563 75.0503 219.219 76.1725C218.624 78.0963 217.994 80.0773 219.712 81.2567C220.284 81.6575 220.88 81.7835 221.395 81.7835C222.403 81.7835 223.181 81.3026 223.227 81.2682C223.502 81.0964 223.582 80.73 223.41 80.4552C223.239 80.1804 222.872 80.1002 222.597 80.272C222.551 80.3063 221.418 80.9934 220.387 80.2834C219.437 79.6307 219.757 78.4283 220.353 76.5275C220.731 75.3022 221.132 74.0426 221.063 72.783C220.983 71.2027 220.422 70.0462 219.402 69.3705C217.994 68.4201 216.127 68.6949 215.2 68.9125V66.0497C224.269 65.4543 232.17 63.6679 234.518 63.1068C234.655 65.2367 235.365 71.3745 238.846 74.18C239.018 74.3174 239.27 74.3518 239.476 74.2487C239.682 74.1571 239.808 73.951 239.82 73.7219C239.843 70.4126 241.778 68.798 243.553 68.7064C245.202 68.6148 247.011 69.7713 247.354 72.5768C248.03 78.0505 245.19 79.7109 242.694 80.146C242.694 80.146 242.671 80.146 242.66 80.1574C241.331 80.3178 240.575 79.9513 240.553 79.9399C240.266 79.791 239.911 79.8941 239.751 80.1803C239.591 80.4666 239.705 80.8216 239.991 80.9819C240.026 81.0048 240.747 81.3827 242.007 81.3827C242.098 81.3827 242.213 81.3598 242.316 81.3598L243.358 86.1922L245.831 99.7388C246.221 101.846 245.476 103.941 243.885 105.224C241.938 106.804 239.51 107.743 236.659 108.029C233.773 108.316 231.369 107.972 229.502 107.022L229.514 106.987Z" fill="black"/>
<path d="M226.743 74.638C227.463 74.638 228.048 74.0536 228.048 73.3326C228.048 72.6116 227.463 72.0272 226.743 72.0272C226.022 72.0272 225.437 72.6116 225.437 73.3326C225.437 74.0536 226.022 74.638 226.743 74.638Z" fill="black"/>
<path d="M222.998 69.5996C222.758 69.8171 222.746 70.195 222.964 70.4355C223.181 70.676 223.559 70.6874 223.8 70.4699C226.777 67.7331 229.491 69.9202 229.605 70.0118C229.743 70.1263 229.914 70.1607 230.075 70.1378C230.212 70.1149 230.338 70.0462 230.441 69.9317C230.647 69.6797 230.613 69.3133 230.373 69.0957C230.338 69.0614 226.765 66.1414 223.009 69.5881L222.998 69.5996Z" fill="black"/>
<path d="M195.447 186.481L178.877 146.688C178.579 145.967 177.881 145.509 177.102 145.509H114.373C114.03 145.509 113.709 145.68 113.514 145.967C113.32 146.253 113.285 146.608 113.423 146.929L129.683 186.492H195.447V186.481Z" fill="white"/>
<path d="M222.941 187.671H129.878V188.244C129.878 188.565 130.141 188.817 130.451 188.817H222.941C223.261 188.817 223.513 188.553 223.513 188.244C223.513 187.935 223.25 187.671 222.941 187.671Z" fill="white"/>
<path d="M222.941 186.481H196.729L179.976 146.23C179.495 145.074 178.373 144.318 177.114 144.318H114.385C113.64 144.318 112.965 144.684 112.553 145.303C112.14 145.921 112.06 146.688 112.346 147.375L128.71 187.191V188.244C128.71 189.217 129.5 190.008 130.473 190.008H222.964C223.937 190.008 224.727 189.217 224.727 188.244C224.727 187.271 223.937 186.481 222.964 186.481H222.941ZM222.941 188.817H130.451C130.13 188.817 129.878 188.553 129.878 188.244V187.671H222.941C223.261 187.671 223.513 187.935 223.513 188.244C223.513 188.553 223.25 188.817 222.941 188.817ZM113.514 145.967C113.709 145.68 114.018 145.509 114.373 145.509H177.102C177.881 145.509 178.579 145.978 178.877 146.688L195.447 186.481H129.683L113.423 146.917C113.285 146.597 113.331 146.242 113.514 145.955V145.967Z" fill="black"/>
<path d="M149.148 168.798C149.699 168.196 149.563 167.175 148.845 166.518C148.126 165.86 147.097 165.814 146.546 166.416C145.995 167.018 146.131 168.039 146.849 168.697C147.568 169.354 148.597 169.4 149.148 168.798Z" fill="#FDA32E"/>
<path d="M153.851 168.874C154.402 168.272 154.266 167.251 153.548 166.593C152.83 165.936 151.801 165.89 151.25 166.492C150.699 167.094 150.834 168.115 151.553 168.772C152.271 169.43 153.3 169.475 153.851 168.874Z" fill="#FDA32E"/>
<path d="M158.564 168.872C159.115 168.271 158.979 167.25 158.261 166.592C157.542 165.934 156.513 165.889 155.962 166.49C155.412 167.092 155.547 168.113 156.265 168.771C156.984 169.429 158.013 169.474 158.564 168.872Z" fill="#FDA32E"/>
<path d="M132.638 3.95062H62.9694C55.5377 3.95062 49.5259 9.97388 49.5259 17.3942C49.5259 24.8259 55.5491 30.8377 62.9694 30.8377H118.816C119.103 30.8377 119.377 30.9522 119.572 31.1469L124.931 36.506C125.607 37.1816 126.763 36.7007 126.763 35.7502V31.9141C126.763 31.3187 127.244 30.8377 127.84 30.8377H132.626C140.058 30.8377 146.07 24.8145 146.07 17.3942C146.07 9.96243 140.047 3.95062 132.626 3.95062H132.638Z" fill="black"/>
<path d="M231.266 0H300.934C308.366 0 314.378 6.02326 314.378 13.4435C314.378 20.8753 308.354 26.8871 300.934 26.8871H245.087C244.801 26.8871 244.526 27.0016 244.331 27.1963L238.972 32.5554C238.297 33.231 237.14 32.75 237.14 31.7996V27.9635C237.14 27.368 236.659 26.8871 236.064 26.8871H231.277C223.845 26.8871 217.834 20.8638 217.834 13.4435C217.834 6.01181 223.857 0 231.277 0L231.266 0Z" fill="black"/>
<path d="M157.257 21.8143C157.143 21.8143 157.017 21.7685 156.937 21.6654C156.777 21.4936 156.799 21.2188 156.971 21.0585C156.971 21.0585 157.326 20.7379 157.979 20.234C158.162 20.0852 158.437 20.1195 158.586 20.3027C158.735 20.486 158.7 20.7608 158.517 20.9096C157.899 21.402 157.555 21.6998 157.544 21.7112C157.464 21.7799 157.361 21.8143 157.257 21.8143Z" fill="black"/>
<path d="M310.748 170.861C310.622 170.861 310.484 170.804 310.404 170.69C310.267 170.495 310.301 170.232 310.496 170.094C311.194 169.579 311.87 169.064 312.522 168.537C312.706 168.388 312.981 168.422 313.129 168.605C313.278 168.789 313.244 169.064 313.061 169.212C312.397 169.739 311.709 170.266 311.011 170.781C310.931 170.838 310.839 170.861 310.759 170.861H310.748ZM314.778 167.678C314.652 167.678 314.538 167.621 314.446 167.529C314.297 167.346 314.32 167.083 314.503 166.922C315.168 166.361 315.809 165.811 316.439 165.25C316.61 165.09 316.885 165.101 317.046 165.285C317.206 165.456 317.183 165.731 317.011 165.892C316.381 166.464 315.729 167.025 315.053 167.586C314.973 167.655 314.87 167.689 314.778 167.689V167.678ZM318.603 164.243C318.488 164.243 318.374 164.197 318.294 164.105C318.133 163.933 318.133 163.659 318.305 163.498C318.924 162.903 319.53 162.296 320.114 161.701C320.275 161.529 320.55 161.529 320.721 161.701C320.893 161.861 320.893 162.136 320.721 162.307C320.126 162.914 319.519 163.521 318.889 164.128C318.809 164.208 318.695 164.243 318.592 164.243H318.603ZM322.187 160.555C322.084 160.555 321.981 160.521 321.901 160.441C321.729 160.281 321.706 160.006 321.867 159.834C322.451 159.193 323 158.551 323.538 157.91C323.687 157.727 323.962 157.704 324.145 157.853C324.329 158.002 324.351 158.277 324.203 158.46C323.653 159.113 323.092 159.765 322.508 160.418C322.428 160.51 322.302 160.555 322.187 160.555ZM325.485 156.605C325.393 156.605 325.302 156.582 325.222 156.513C325.038 156.364 325.004 156.101 325.142 155.918C325.668 155.231 326.172 154.544 326.653 153.857C326.79 153.662 327.054 153.616 327.249 153.753C327.443 153.891 327.489 154.154 327.352 154.349C326.859 155.047 326.355 155.746 325.817 156.433C325.737 156.548 325.611 156.605 325.474 156.605H325.485ZM328.428 152.391C328.348 152.391 328.268 152.368 328.199 152.322C328.004 152.196 327.936 151.933 328.062 151.727C328.52 151.005 328.966 150.272 329.378 149.539C329.493 149.333 329.756 149.265 329.962 149.379C330.169 149.494 330.237 149.757 330.123 149.963C329.699 150.696 329.252 151.452 328.783 152.185C328.703 152.311 328.565 152.379 328.417 152.379L328.428 152.391ZM330.97 147.925C330.901 147.925 330.844 147.913 330.775 147.879C330.569 147.776 330.478 147.513 330.581 147.307C330.97 146.539 331.337 145.761 331.669 145.005C331.76 144.787 332.012 144.696 332.23 144.787C332.447 144.879 332.539 145.131 332.447 145.348C332.104 146.127 331.737 146.917 331.337 147.696C331.256 147.845 331.108 147.936 330.959 147.936L330.97 147.925ZM333.031 143.218C333.031 143.218 332.928 143.218 332.882 143.196C332.665 143.115 332.55 142.863 332.631 142.646C332.928 141.844 333.203 141.043 333.455 140.241C333.524 140.012 333.764 139.886 333.993 139.955C334.222 140.024 334.348 140.264 334.279 140.493C334.028 141.306 333.741 142.142 333.444 142.955C333.375 143.127 333.215 143.23 333.043 143.23L333.031 143.218ZM334.543 138.306C334.543 138.306 334.474 138.306 334.44 138.295C334.211 138.237 334.073 138.008 334.119 137.779C334.314 136.955 334.497 136.119 334.634 135.294C334.68 135.065 334.898 134.905 335.127 134.951C335.356 134.997 335.516 135.214 335.47 135.443C335.322 136.291 335.15 137.138 334.944 137.985C334.898 138.18 334.715 138.317 334.531 138.317L334.543 138.306ZM217.925 134.745C217.696 134.745 217.502 134.561 217.502 134.321C217.502 134.081 217.685 133.886 217.925 133.886C218.773 133.874 219.62 133.84 220.479 133.806C220.742 133.783 220.914 133.977 220.925 134.206C220.937 134.436 220.754 134.642 220.525 134.653C219.654 134.699 218.796 134.722 217.937 134.745H217.925ZM215.349 134.745C214.478 134.722 213.608 134.687 212.761 134.642C212.52 134.63 212.349 134.424 212.36 134.184C212.371 133.943 212.555 133.748 212.818 133.783C213.654 133.84 214.513 133.874 215.372 133.886C215.612 133.886 215.795 134.092 215.795 134.321C215.795 134.55 215.601 134.745 215.372 134.745H215.349ZM223.055 134.493C222.838 134.493 222.643 134.321 222.632 134.103C222.609 133.863 222.792 133.657 223.021 133.645C223.868 133.577 224.716 133.497 225.563 133.393C225.781 133.371 226.01 133.531 226.033 133.771C226.055 134.012 225.895 134.218 225.655 134.241C224.796 134.332 223.937 134.424 223.078 134.493C223.067 134.493 223.055 134.493 223.044 134.493H223.055ZM210.219 134.424C210.219 134.424 210.184 134.424 210.173 134.424C209.303 134.332 208.444 134.218 207.608 134.092C207.379 134.058 207.218 133.84 207.253 133.6C207.287 133.359 207.516 133.21 207.745 133.245C208.57 133.371 209.417 133.485 210.276 133.577C210.516 133.6 210.677 133.817 210.654 134.046C210.631 134.264 210.448 134.424 210.23 134.424H210.219ZM228.162 133.909C227.956 133.909 227.773 133.76 227.739 133.542C227.704 133.313 227.865 133.096 228.105 133.061C228.941 132.947 229.789 132.809 230.636 132.661C230.865 132.615 231.094 132.775 231.128 133.016C231.163 133.245 231.014 133.474 230.773 133.508C229.914 133.657 229.067 133.783 228.22 133.909C228.197 133.909 228.174 133.909 228.162 133.909ZM205.146 133.622C205.146 133.622 205.089 133.622 205.054 133.622C204.195 133.439 203.348 133.233 202.535 133.016C202.306 132.958 202.169 132.718 202.237 132.489C202.295 132.26 202.535 132.134 202.764 132.191C203.566 132.409 204.39 132.615 205.237 132.787C205.466 132.832 205.615 133.061 205.57 133.29C205.524 133.497 205.352 133.634 205.146 133.634V133.622ZM335.425 133.256C335.425 133.256 335.39 133.256 335.379 133.256C335.138 133.233 334.967 133.016 335.001 132.787C335.092 131.939 335.15 131.08 335.184 130.256C335.184 130.015 335.402 129.855 335.631 129.844C335.871 129.844 336.054 130.05 336.043 130.29C336.009 131.138 335.951 132.019 335.86 132.878C335.837 133.096 335.654 133.268 335.436 133.268L335.425 133.256ZM233.235 133.05C233.041 133.05 232.857 132.913 232.812 132.706C232.766 132.477 232.915 132.248 233.144 132.203C233.98 132.042 234.816 131.859 235.651 131.676C235.88 131.63 236.11 131.767 236.167 131.996C236.213 132.225 236.075 132.454 235.846 132.512C234.999 132.706 234.163 132.878 233.315 133.038C233.293 133.038 233.258 133.038 233.235 133.038V133.05ZM200.188 132.26C200.188 132.26 200.096 132.26 200.05 132.237C199.226 131.951 198.401 131.641 197.622 131.309C197.405 131.218 197.302 130.966 197.393 130.748C197.485 130.531 197.737 130.428 197.955 130.519C198.722 130.851 199.512 131.149 200.325 131.435C200.554 131.515 200.668 131.756 200.588 131.985C200.531 132.168 200.359 132.271 200.188 132.271V132.26ZM238.251 131.928C238.056 131.928 237.884 131.802 237.839 131.607C237.781 131.378 237.919 131.149 238.148 131.092C238.972 130.886 239.797 130.68 240.633 130.451C240.862 130.393 241.091 130.519 241.159 130.748C241.217 130.977 241.091 131.206 240.862 131.275C240.026 131.504 239.19 131.722 238.365 131.928C238.331 131.928 238.297 131.939 238.262 131.939L238.251 131.928ZM243.221 130.588C243.037 130.588 242.866 130.462 242.808 130.279C242.74 130.05 242.866 129.809 243.095 129.752C243.908 129.512 244.732 129.26 245.545 129.008C245.774 128.939 246.015 129.065 246.083 129.283C246.152 129.512 246.026 129.752 245.809 129.821C244.984 130.084 244.16 130.336 243.335 130.576C243.289 130.588 243.255 130.599 243.209 130.599L243.221 130.588ZM195.47 130.244C195.401 130.244 195.332 130.233 195.275 130.199C194.496 129.798 193.741 129.351 193.019 128.893C192.824 128.767 192.756 128.504 192.893 128.298C193.019 128.103 193.283 128.046 193.489 128.172C194.187 128.618 194.92 129.042 195.676 129.443C195.882 129.557 195.962 129.809 195.859 130.015C195.779 130.164 195.63 130.244 195.481 130.244H195.47ZM248.122 129.042C247.938 129.042 247.778 128.928 247.721 128.756C247.641 128.527 247.767 128.286 247.984 128.206C248.786 127.931 249.599 127.645 250.4 127.359C250.618 127.279 250.87 127.393 250.95 127.611C251.03 127.828 250.916 128.08 250.698 128.16C249.885 128.458 249.072 128.744 248.259 129.019C248.213 129.031 248.167 129.042 248.122 129.042ZM335.596 128.126C335.367 128.126 335.173 127.943 335.173 127.714C335.138 126.866 335.081 126.008 334.978 125.183C334.955 124.943 335.115 124.736 335.356 124.714C335.585 124.691 335.802 124.851 335.825 125.091C335.917 125.939 335.986 126.809 336.02 127.679C336.02 127.92 335.848 128.115 335.608 128.126H335.596ZM191.141 127.485C191.05 127.485 190.958 127.45 190.878 127.393C190.191 126.855 189.527 126.282 188.897 125.687C188.725 125.527 188.714 125.252 188.885 125.08C189.057 124.908 189.32 124.908 189.492 125.069C190.099 125.641 190.74 126.202 191.405 126.717C191.588 126.866 191.622 127.13 191.485 127.313C191.405 127.427 191.279 127.473 191.141 127.473V127.485ZM252.954 127.301C252.782 127.301 252.622 127.198 252.553 127.027C252.473 126.809 252.576 126.557 252.805 126.477C253.595 126.168 254.397 125.859 255.187 125.538C255.405 125.446 255.656 125.561 255.748 125.779C255.84 125.996 255.725 126.248 255.508 126.34C254.706 126.66 253.904 126.981 253.103 127.29C253.057 127.313 253 127.313 252.954 127.313V127.301ZM257.718 125.366C257.546 125.366 257.397 125.275 257.328 125.103C257.237 124.885 257.328 124.633 257.557 124.542C258.336 124.21 259.126 123.866 259.905 123.511C260.122 123.408 260.374 123.511 260.466 123.729C260.558 123.946 260.466 124.198 260.248 124.29C259.458 124.645 258.668 124.988 257.889 125.32C257.832 125.343 257.775 125.355 257.718 125.355V125.366ZM187.42 123.946C187.294 123.946 187.179 123.901 187.099 123.797C186.538 123.145 186 122.446 185.507 121.725C185.37 121.53 185.427 121.267 185.622 121.129C185.816 120.992 186.08 121.038 186.217 121.244C186.698 121.931 187.213 122.607 187.752 123.248C187.901 123.431 187.889 123.694 187.706 123.855C187.626 123.923 187.523 123.958 187.431 123.958L187.42 123.946ZM262.413 123.259C262.252 123.259 262.103 123.168 262.023 123.019C261.92 122.801 262.023 122.549 262.229 122.446C262.997 122.08 263.775 121.713 264.542 121.335C264.76 121.232 265.012 121.313 265.115 121.53C265.218 121.748 265.138 122 264.92 122.103C264.142 122.481 263.374 122.858 262.596 123.225C262.539 123.248 262.47 123.271 262.413 123.271V123.259ZM335.012 123.019C334.806 123.019 334.634 122.881 334.589 122.675C334.428 121.851 334.234 121.026 334.005 120.213C333.936 119.984 334.073 119.744 334.302 119.687C334.531 119.618 334.772 119.755 334.829 119.984C335.058 120.82 335.264 121.668 335.425 122.515C335.47 122.744 335.322 122.973 335.081 123.019C335.058 123.019 335.024 123.019 335.001 123.019H335.012ZM267.027 120.981C266.867 120.981 266.718 120.9 266.649 120.751C266.535 120.545 266.627 120.282 266.833 120.179C267.588 119.79 268.344 119.389 269.1 118.988C269.306 118.874 269.57 118.954 269.684 119.16C269.799 119.366 269.718 119.629 269.512 119.744C268.756 120.156 267.989 120.557 267.233 120.946C267.176 120.981 267.108 120.992 267.039 120.992L267.027 120.981ZM184.511 119.709C184.362 119.709 184.213 119.629 184.133 119.492C183.847 118.977 183.583 118.438 183.32 117.889C183.206 117.637 183.091 117.396 182.988 117.144C182.896 116.927 182.988 116.675 183.217 116.583C183.435 116.492 183.687 116.583 183.778 116.812C183.881 117.053 183.984 117.293 184.099 117.534C184.339 118.06 184.603 118.587 184.877 119.08C184.992 119.286 184.912 119.549 184.706 119.664C184.637 119.698 184.568 119.721 184.5 119.721L184.511 119.709ZM271.551 118.553C271.402 118.553 271.253 118.473 271.173 118.335C271.058 118.129 271.127 117.866 271.333 117.751C272.077 117.339 272.822 116.915 273.554 116.48C273.761 116.354 274.024 116.434 274.138 116.629C274.253 116.835 274.184 117.099 273.99 117.213C273.245 117.648 272.501 118.072 271.757 118.484C271.688 118.519 271.619 118.541 271.551 118.541V118.553ZM333.627 118.072C333.455 118.072 333.295 117.969 333.226 117.797C332.928 116.996 332.596 116.217 332.241 115.461C332.138 115.244 332.241 114.992 332.447 114.889C332.653 114.785 332.917 114.889 333.02 115.095C333.386 115.873 333.73 116.675 334.028 117.499C334.108 117.717 333.993 117.969 333.776 118.049C333.73 118.072 333.673 118.072 333.627 118.072ZM275.982 115.976C275.833 115.976 275.696 115.908 275.616 115.77C275.49 115.564 275.558 115.301 275.765 115.186C276.497 114.74 277.219 114.293 277.94 113.846C278.135 113.721 278.398 113.778 278.536 113.984C278.662 114.179 278.604 114.453 278.398 114.579C277.665 115.037 276.944 115.484 276.211 115.931C276.142 115.976 276.062 115.988 275.994 115.988L275.982 115.976ZM182.496 114.992C182.312 114.992 182.141 114.877 182.083 114.694C181.82 113.881 181.602 113.022 181.419 112.175C181.373 111.946 181.522 111.717 181.751 111.671C181.98 111.625 182.209 111.774 182.255 112.003C182.427 112.839 182.644 113.652 182.896 114.453C182.965 114.682 182.839 114.923 182.622 114.992C182.576 115.003 182.53 115.015 182.496 115.015V114.992ZM331.417 113.434C331.268 113.434 331.13 113.354 331.05 113.228C330.615 112.495 330.157 111.785 329.665 111.11C329.527 110.915 329.573 110.652 329.768 110.514C329.962 110.377 330.226 110.423 330.363 110.617C330.867 111.316 331.348 112.049 331.783 112.804C331.909 113.011 331.84 113.274 331.634 113.388C331.566 113.434 331.497 113.446 331.417 113.446V113.434ZM280.322 113.24C280.185 113.24 280.047 113.171 279.967 113.045C279.841 112.85 279.898 112.587 280.093 112.449C280.803 111.98 281.513 111.51 282.223 111.03C282.418 110.904 282.681 110.949 282.818 111.144C282.956 111.339 282.899 111.602 282.704 111.74C281.994 112.22 281.272 112.701 280.563 113.171C280.494 113.217 280.414 113.24 280.334 113.24H280.322ZM284.57 110.354C284.433 110.354 284.307 110.285 284.215 110.171C284.078 109.976 284.124 109.713 284.318 109.575C285.017 109.083 285.716 108.59 286.403 108.087C286.597 107.949 286.861 107.995 286.998 108.178C287.135 108.373 287.09 108.636 286.906 108.774C286.208 109.278 285.509 109.781 284.811 110.274C284.731 110.331 284.651 110.354 284.559 110.354H284.57ZM181.408 109.965C181.19 109.965 181.007 109.804 180.984 109.587C180.881 108.739 180.812 107.869 180.778 106.987C180.778 106.747 180.95 106.552 181.19 106.541C181.419 106.541 181.625 106.712 181.637 106.953C181.671 107.812 181.74 108.659 181.843 109.484C181.877 109.713 181.705 109.93 181.465 109.965C181.442 109.965 181.431 109.965 181.408 109.965ZM328.417 109.266C328.302 109.266 328.176 109.22 328.096 109.117C327.546 108.487 326.951 107.869 326.344 107.296C326.172 107.136 326.161 106.861 326.321 106.69C326.481 106.518 326.756 106.506 326.928 106.667C327.558 107.262 328.165 107.892 328.737 108.545C328.897 108.728 328.875 108.991 328.691 109.152C328.611 109.22 328.508 109.255 328.405 109.255L328.417 109.266ZM288.762 107.365C288.624 107.365 288.487 107.296 288.407 107.182C288.269 106.987 288.326 106.724 288.521 106.587C289.242 106.094 289.975 105.625 290.697 105.178C290.903 105.052 291.166 105.121 291.281 105.327C291.395 105.533 291.338 105.796 291.132 105.911C290.422 106.335 289.7 106.804 288.991 107.285C288.922 107.331 288.83 107.365 288.75 107.365H288.762ZM324.683 105.751C324.592 105.751 324.5 105.716 324.42 105.659C323.756 105.144 323.057 104.663 322.347 104.216C322.141 104.09 322.084 103.827 322.21 103.621C322.336 103.415 322.599 103.357 322.806 103.483C323.55 103.941 324.271 104.445 324.958 104.972C325.142 105.121 325.176 105.384 325.038 105.579C324.958 105.693 324.832 105.751 324.695 105.751H324.683ZM181.202 104.835H181.19C180.95 104.835 180.767 104.628 180.778 104.388C180.801 103.541 180.858 102.67 180.95 101.8C180.973 101.56 181.19 101.399 181.419 101.411C181.66 101.434 181.831 101.64 181.809 101.88C181.728 102.739 181.671 103.598 181.637 104.411C181.637 104.64 181.442 104.823 181.213 104.823L181.202 104.835ZM293.159 104.709C293.01 104.709 292.861 104.628 292.781 104.48C292.666 104.273 292.746 104.01 292.953 103.896C293.72 103.483 294.51 103.094 295.277 102.75C295.495 102.659 295.747 102.75 295.85 102.968C295.953 103.186 295.85 103.437 295.632 103.541C294.876 103.884 294.109 104.262 293.353 104.663C293.285 104.697 293.216 104.709 293.147 104.709H293.159ZM320.321 103.048C320.252 103.048 320.195 103.037 320.137 103.002C319.382 102.636 318.603 102.304 317.813 102.018C317.595 101.937 317.481 101.685 317.561 101.468C317.641 101.239 317.893 101.136 318.111 101.216C318.924 101.514 319.737 101.857 320.515 102.235C320.733 102.338 320.813 102.59 320.71 102.808C320.641 102.957 320.481 103.048 320.321 103.048ZM297.842 102.59C297.67 102.59 297.51 102.487 297.441 102.315C297.361 102.098 297.464 101.846 297.693 101.766C298.518 101.456 299.342 101.182 300.155 100.941C300.384 100.872 300.625 100.998 300.682 101.227C300.739 101.456 300.625 101.697 300.396 101.754C299.594 101.995 298.793 102.258 297.991 102.556C297.945 102.579 297.888 102.579 297.842 102.579V102.59ZM315.511 101.285C315.511 101.285 315.442 101.285 315.408 101.273C314.595 101.067 313.759 100.895 312.935 100.769C312.706 100.735 312.545 100.517 312.58 100.277C312.614 100.048 312.843 99.8876 313.072 99.922C313.931 100.048 314.79 100.231 315.626 100.437C315.855 100.495 315.992 100.724 315.935 100.953C315.889 101.147 315.706 101.273 315.523 101.273L315.511 101.285ZM302.778 101.136C302.583 101.136 302.4 100.998 302.354 100.792C302.308 100.563 302.457 100.334 302.686 100.288C303.545 100.105 304.404 99.9564 305.251 99.8533C305.48 99.8189 305.698 99.9907 305.732 100.22C305.766 100.46 305.595 100.666 305.366 100.701C304.541 100.804 303.694 100.953 302.869 101.124C302.835 101.124 302.812 101.124 302.778 101.124V101.136ZM310.438 100.506C310.438 100.506 310.427 100.506 310.415 100.506C309.58 100.46 308.744 100.449 307.885 100.483C307.621 100.483 307.45 100.311 307.438 100.071C307.438 99.8304 307.61 99.6357 307.85 99.6243C308.732 99.5899 309.602 99.6014 310.461 99.6472C310.702 99.6586 310.873 99.8648 310.862 100.094C310.851 100.323 310.656 100.495 310.438 100.495V100.506ZM181.705 99.7159C181.705 99.7159 181.66 99.7159 181.637 99.7159C181.408 99.6815 181.247 99.464 181.282 99.2235C181.408 98.399 181.557 97.5402 181.74 96.6699C181.786 96.4409 182.015 96.292 182.244 96.3378C182.473 96.3836 182.622 96.6126 182.576 96.8417C182.404 97.7005 182.244 98.5479 182.129 99.3494C182.095 99.5556 181.912 99.7159 181.705 99.7159ZM182.725 94.6774C182.725 94.6774 182.656 94.6774 182.622 94.666C182.393 94.6087 182.255 94.3797 182.312 94.1507C182.519 93.3262 182.736 92.4903 182.977 91.6543C183.045 91.4253 183.274 91.2993 183.503 91.3566C183.732 91.4253 183.858 91.6543 183.801 91.8834C183.561 92.7078 183.343 93.5323 183.137 94.3568C183.091 94.5515 182.908 94.6774 182.725 94.6774ZM184.133 89.7306C184.133 89.7306 184.042 89.7305 184.007 89.7076C183.778 89.6389 183.652 89.3985 183.732 89.1695C183.996 88.3564 184.259 87.532 184.545 86.7189C184.626 86.4899 184.866 86.3754 185.095 86.4556C185.324 86.5357 185.439 86.7762 185.358 87.0052C185.084 87.8182 184.809 88.6312 184.557 89.4328C184.5 89.616 184.328 89.7306 184.145 89.7306H184.133ZM185.805 84.8639C185.805 84.8639 185.702 84.8638 185.656 84.8409C185.439 84.7608 185.324 84.5089 185.404 84.2913C185.702 83.4897 186 82.6881 186.32 81.8751C186.412 81.6576 186.652 81.543 186.87 81.6347C187.087 81.7148 187.202 81.9667 187.11 82.1843C186.801 82.9859 186.503 83.7875 186.206 84.589C186.137 84.7608 185.977 84.8639 185.805 84.8639ZM187.66 80.0658C187.66 80.0658 187.557 80.0658 187.5 80.0315C187.282 79.9399 187.168 79.6994 187.259 79.4704C187.58 78.6803 187.901 77.8787 188.233 77.0886C188.324 76.871 188.576 76.768 188.794 76.8596C189.011 76.9512 189.114 77.2031 189.023 77.4207C188.691 78.2108 188.37 79.0124 188.061 79.8025C187.992 79.9743 187.832 80.0658 187.66 80.0658ZM189.618 75.3022C189.618 75.3022 189.504 75.3022 189.458 75.2679C189.24 75.1763 189.137 74.9243 189.229 74.7068C189.561 73.9166 189.893 73.1265 190.225 72.3364C190.317 72.1188 190.569 72.0158 190.786 72.1074C191.004 72.199 191.107 72.4509 191.015 72.6685C190.683 73.4586 190.351 74.2487 190.019 75.0388C189.95 75.1992 189.79 75.3022 189.63 75.3022H189.618ZM191.622 70.5615C191.622 70.5615 191.508 70.5615 191.45 70.5271C191.233 70.4355 191.13 70.1836 191.221 69.966C191.553 69.1759 191.885 68.3858 192.218 67.5956C192.309 67.3781 192.561 67.275 192.779 67.3666C192.996 67.4582 193.099 67.7102 193.008 67.9277C192.676 68.7178 192.344 69.508 192.011 70.2981C191.943 70.4584 191.782 70.5615 191.622 70.5615ZM193.603 65.8207C193.603 65.8207 193.489 65.8207 193.443 65.7864C193.225 65.6948 193.122 65.4428 193.214 65.2253C193.546 64.4351 193.867 63.6336 194.176 62.8435C194.267 62.6259 194.508 62.5114 194.737 62.603C194.954 62.6946 195.069 62.9351 194.977 63.1641C194.657 63.9542 194.336 64.7558 194.004 65.5574C193.935 65.7177 193.775 65.8207 193.603 65.8207ZM195.504 61.0456C195.504 61.0456 195.401 61.0456 195.355 61.0227C195.138 60.9426 195.023 60.6907 195.115 60.4731C195.424 59.6715 195.722 58.8699 196.019 58.0684C196.099 57.8508 196.351 57.7363 196.569 57.8164C196.787 57.8966 196.901 58.1485 196.821 58.3661C196.523 59.1677 196.225 59.9807 195.916 60.7823C195.848 60.954 195.687 61.0571 195.515 61.0571L195.504 61.0456ZM197.256 56.2133C197.256 56.2133 197.164 56.2133 197.119 56.1904C196.89 56.1102 196.775 55.8698 196.855 55.6522C197.13 54.8392 197.393 54.0261 197.645 53.2131C197.714 52.9841 197.955 52.8581 198.184 52.9268C198.413 52.9955 198.539 53.236 198.47 53.465C198.218 54.2781 197.955 55.1025 197.668 55.927C197.611 56.1102 197.439 56.2133 197.267 56.2133H197.256ZM198.768 51.3008C198.768 51.3008 198.687 51.3008 198.653 51.2893C198.424 51.2321 198.287 50.9916 198.355 50.7626C198.584 49.9381 198.79 49.1136 198.985 48.2891C199.042 48.0601 199.271 47.9113 199.5 47.9685C199.729 48.0258 199.878 48.2548 199.821 48.4838C199.626 49.3197 199.409 50.1557 199.18 50.9916C199.123 51.1863 198.951 51.3122 198.768 51.3122V51.3008ZM199.924 46.2967C199.924 46.2967 199.867 46.2967 199.844 46.2967C199.615 46.2509 199.455 46.0333 199.5 45.7928C199.661 44.9454 199.787 44.0981 199.901 43.2736C199.936 43.0331 200.153 42.8728 200.382 42.9071C200.623 42.9415 200.783 43.1476 200.749 43.3881C200.646 44.224 200.508 45.0828 200.348 45.9531C200.313 46.1592 200.13 46.3081 199.924 46.3081V46.2967ZM200.577 41.2009H200.554C200.313 41.1895 200.142 40.9834 200.153 40.7429C200.199 40.01 200.222 39.2657 200.222 38.5557V38.2122C200.222 37.9717 200.405 37.7771 200.646 37.7771C200.886 37.7771 201.069 37.9717 201.069 38.2008V38.5557C201.069 39.2886 201.046 40.0444 201.001 40.8002C200.989 41.0292 200.794 41.2009 200.577 41.2009ZM200.508 36.0709C200.291 36.0709 200.107 35.9105 200.084 35.6815C200.004 34.8341 199.878 33.9868 199.729 33.1737C199.684 32.9447 199.833 32.7157 200.073 32.6699C200.302 32.6241 200.531 32.773 200.577 33.0134C200.737 33.8494 200.863 34.7196 200.943 35.5899C200.966 35.8304 200.794 36.0365 200.554 36.0594C200.542 36.0594 200.531 36.0594 200.508 36.0594V36.0709ZM199.523 31.0324C199.34 31.0324 199.168 30.9179 199.111 30.7232C198.871 29.9216 198.584 29.1201 198.252 28.3528C198.161 28.1353 198.252 27.8833 198.481 27.7917C198.699 27.7001 198.951 27.7917 199.042 28.0208C199.386 28.8223 199.684 29.6468 199.936 30.4827C200.004 30.7118 199.878 30.9522 199.649 31.0209C199.604 31.0324 199.569 31.0438 199.523 31.0438V31.0324ZM197.519 26.3031C197.371 26.3031 197.222 26.2229 197.142 26.0855C196.741 25.3641 196.283 24.6427 195.802 23.9442C195.664 23.7495 195.71 23.4861 195.905 23.3487C196.099 23.2113 196.363 23.2571 196.5 23.4518C197.004 24.1732 197.474 24.9175 197.886 25.6618C198 25.868 197.932 26.1313 197.726 26.2458C197.657 26.2802 197.588 26.3031 197.519 26.3031ZM194.576 22.1006C194.451 22.1006 194.336 22.0548 194.256 21.9517C193.718 21.3219 193.134 20.7035 192.527 20.0966C192.355 19.9249 192.355 19.6615 192.527 19.4897C192.687 19.318 192.962 19.318 193.134 19.4897C193.763 20.1081 194.359 20.7493 194.909 21.3906C195.057 21.5738 195.046 21.8372 194.863 21.9975C194.783 22.0662 194.68 22.1006 194.588 22.1006H194.576ZM160.292 19.4783C160.155 19.4783 160.017 19.4096 159.937 19.295C159.8 19.1004 159.857 18.837 160.052 18.6996C160.762 18.2072 161.494 17.7263 162.227 17.2797C162.433 17.1537 162.697 17.2224 162.811 17.4171C162.937 17.6232 162.868 17.8866 162.674 18.0011C161.952 18.4362 161.242 18.9057 160.532 19.3867C160.464 19.4325 160.372 19.4668 160.292 19.4668V19.4783ZM190.912 18.4935C190.809 18.4935 190.717 18.4591 190.637 18.3904C190.008 17.8637 189.332 17.3369 188.633 16.8216C188.439 16.6842 188.404 16.4094 188.542 16.2262C188.679 16.0429 188.954 15.9971 189.137 16.1346C189.847 16.6499 190.534 17.1881 191.187 17.7377C191.37 17.8866 191.393 18.1614 191.244 18.3446C191.164 18.4477 191.038 18.4935 190.912 18.4935ZM164.678 16.7987C164.529 16.7987 164.38 16.7186 164.3 16.5697C164.185 16.3636 164.266 16.1002 164.483 15.9857C165.262 15.5735 166.04 15.1956 166.819 14.8406C167.037 14.749 167.289 14.8406 167.38 15.0582C167.472 15.2757 167.38 15.5276 167.163 15.6193C166.407 15.9628 165.64 16.3407 164.884 16.7415C164.815 16.7758 164.746 16.7873 164.678 16.7873V16.7987ZM186.755 15.4818C186.687 15.4818 186.607 15.4589 186.538 15.4246C185.816 15.0009 185.049 14.6345 184.282 14.3253C184.064 14.2337 183.95 13.9932 184.042 13.7642C184.133 13.5352 184.374 13.4321 184.603 13.5237C185.404 13.8443 186.206 14.2337 186.962 14.6803C187.168 14.7948 187.236 15.0582 187.11 15.2643C187.03 15.4017 186.893 15.4818 186.744 15.4818H186.755ZM169.373 14.7032C169.201 14.7032 169.029 14.6001 168.972 14.4169C168.892 14.1993 169.006 13.9474 169.224 13.8672C170.06 13.5695 170.896 13.3061 171.709 13.0886C171.938 13.0313 172.167 13.1687 172.235 13.3863C172.293 13.6153 172.155 13.8443 171.926 13.913C171.136 14.1192 170.323 14.3825 169.51 14.6688C169.464 14.6917 169.418 14.6917 169.361 14.6917L169.373 14.7032ZM182.003 13.581C182.003 13.581 181.935 13.581 181.9 13.581C181.099 13.3977 180.263 13.2603 179.427 13.1916C179.186 13.1687 179.015 12.9626 179.037 12.7336C179.06 12.4931 179.266 12.3213 179.495 12.3443C180.377 12.4244 181.247 12.5618 182.095 12.7565C182.324 12.8137 182.473 13.0428 182.415 13.2718C182.37 13.4665 182.198 13.6039 182.003 13.6039V13.581ZM174.342 13.3978C174.136 13.3978 173.953 13.2489 173.919 13.0428C173.884 12.8137 174.045 12.5847 174.274 12.5504C175.155 12.413 176.026 12.3214 176.873 12.2755C177.137 12.2526 177.308 12.4473 177.32 12.6878C177.32 12.9283 177.148 13.1229 176.908 13.1344C176.094 13.1687 175.247 13.2603 174.4 13.3978C174.377 13.3978 174.354 13.3978 174.331 13.3978H174.342Z" fill="black"/>
<path d="M307.461 173.197C307.324 173.197 307.186 173.129 307.106 173.014C306.969 172.819 307.026 172.556 307.221 172.419C307.576 172.178 307.931 171.938 308.274 171.686C308.469 171.548 308.732 171.594 308.87 171.789C309.007 171.984 308.961 172.247 308.767 172.384C308.412 172.625 308.057 172.877 307.702 173.117C307.633 173.163 307.541 173.197 307.461 173.197Z" fill="black"/>
<path d="M76.997 14.8635C75.8633 14.8635 74.9472 15.7796 74.9472 16.9132C74.9472 18.0469 75.8633 18.963 76.997 18.963C78.1306 18.963 79.0467 18.0469 79.0467 16.9132C79.0467 15.7796 78.1306 14.8635 76.997 14.8635Z" fill="white"/>
<path d="M86.7418 14.8635C85.6082 14.8635 84.6921 15.7796 84.6921 16.9132C84.6921 18.0469 85.6082 18.963 86.7418 18.963C87.8755 18.963 88.7916 18.0469 88.7916 16.9132C88.7916 15.7796 87.8755 14.8635 86.7418 14.8635Z" fill="white"/>
<path d="M96.4981 14.8635C95.3645 14.8635 94.4484 15.7796 94.4484 16.9132C94.4484 18.0469 95.3645 18.963 96.4981 18.963C97.6318 18.963 98.5479 18.0469 98.5479 16.9132C98.5479 15.7796 97.6318 14.8635 96.4981 14.8635Z" fill="white"/>
<path d="M106.243 18.9744C107.375 18.9744 108.293 18.0567 108.293 16.9247C108.293 15.7926 107.375 14.8749 106.243 14.8749C105.111 14.8749 104.193 15.7926 104.193 16.9247C104.193 18.0567 105.111 18.9744 106.243 18.9744Z" fill="white"/>
<path d="M115.999 14.8635C114.866 14.8635 113.95 15.7796 113.95 16.9132C113.95 18.0469 114.866 18.963 115.999 18.963C117.133 18.963 118.049 18.0469 118.049 16.9132C118.049 15.7796 117.133 14.8635 115.999 14.8635Z" fill="white"/>
<path d="M247.664 10.764C246.53 10.764 245.614 11.6801 245.614 12.8137C245.614 13.9474 246.53 14.8635 247.664 14.8635C248.797 14.8635 249.713 13.9474 249.713 12.8137C249.713 11.6801 248.797 10.764 247.664 10.764Z" fill="#FDA32E"/>
<path d="M257.42 10.764C256.286 10.764 255.37 11.6801 255.37 12.8137C255.37 13.9474 256.286 14.8635 257.42 14.8635C258.554 14.8635 259.47 13.9474 259.47 12.8137C259.47 11.6801 258.554 10.764 257.42 10.764Z" fill="#FDA32E"/>
<path d="M267.176 10.764C266.043 10.764 265.127 11.6801 265.127 12.8137C265.127 13.9474 266.043 14.8635 267.176 14.8635C268.31 14.8635 269.226 13.9474 269.226 12.8137C269.226 11.6801 268.31 10.764 267.176 10.764Z" fill="#FDA32E"/>
<path d="M276.921 14.8635C278.053 14.8635 278.971 13.9458 278.971 12.8137C278.971 11.6817 278.053 10.764 276.921 10.764C275.789 10.764 274.871 11.6817 274.871 12.8137C274.871 13.9458 275.789 14.8635 276.921 14.8635Z" fill="#FDA32E"/>
<path d="M286.677 10.764C285.544 10.764 284.628 11.6801 284.628 12.8137C284.628 13.9474 285.544 14.8635 286.677 14.8635C287.811 14.8635 288.727 13.9474 288.727 12.8137C288.727 11.6801 287.811 10.764 286.677 10.764Z" fill="#FDA32E"/>
<path d="M313.748 189.355H30.895C30.4586 189.355 30.1048 189.709 30.1048 190.145V190.717C30.1048 191.154 30.4586 191.508 30.895 191.508H313.748C314.184 191.508 314.538 191.154 314.538 190.717V190.145C314.538 189.709 314.184 189.355 313.748 189.355Z" fill="white"/>
<path d="M313.461 192H31.1812C30.311 192 29.601 191.29 29.601 190.42C29.601 189.549 30.311 188.84 31.1812 188.84H313.461C314.332 188.84 315.042 189.549 315.042 190.42C315.042 191.29 314.332 192 313.461 192ZM31.1812 189.847C30.8606 189.847 30.6087 190.111 30.6087 190.42C30.6087 190.729 30.8721 190.992 31.1812 190.992H313.461C313.782 190.992 314.034 190.729 314.034 190.42C314.034 190.111 313.771 189.847 313.461 189.847H31.1812Z" fill="black"/>
</g>
<defs>
<clipPath id="clip0_280_10">
<rect width="339.318" height="192" fill="white"/>
</clipPath>
</defs>
</svg>
