<svg id="Layer_1" data-name="Layer 1" xmlns="http://www.w3.org/2000/svg" viewBox="0 0 512 512"><defs><style>.cls-1{fill:#efefef;}.cls-2{fill:#656464;}.cls-3{fill:#d6001b;}</style></defs><rect class="cls-1" x="2.5" y="3.3" width="506.8" height="506.77" rx="69"/><path class="cls-2" d="M115.3,332.7H312.9V361A26.5,26.5,0,0,1,286,387.2a25.4,25.4,0,0,1-7.8-1.2Z"/><path class="cls-3" d="M396.5,197.3V151.7A25.5,25.5,0,0,0,371,126.2H115.3v203H370.5a26.6,26.6,0,0,0,26-26.6V258.1H334.6a10.8,10.8,0,0,1-10.8-10.9V208.1a10.8,10.8,0,0,1,10.8-10.8Z"/><circle class="cls-2" cx="364" cy="231.2" r="10.3"/></svg>