<svg xmlns="http://www.w3.org/2000/svg" width="40.276" height="49" viewBox="0 0 40.276 49">
  <g id="tk" transform="translate(0.023 -0.009)">
    <path id="Path_1774" data-name="Path 1774" d="M83.849,77.187h5.67a1.359,1.359,0,0,1,1.2.422,121.232,121.232,0,0,0,8.8,8.427c6.025,5.581,5.892,16.053,1.2,21.523a18.646,18.646,0,0,1-10.472,5.959c-5.87,1.312-11.651,1.089-17.054-1.668-6-3.046-9.472-7.938-9.316-14.852a16.879,16.879,0,0,1,5.492-11.962c2.6-2.49,5.447-4.691,7.715-7.493.311-.4.711-.334,1.112-.334h5.648Z" transform="translate(-63.9 -65.284)"/>
    <path id="Path_1775" data-name="Path 1775" d="M111.572,33.913c-1.645,0-3.313-.022-4.98.022a1.474,1.474,0,0,1-1.445-.756,17,17,0,0,0-4.691-5.381,1.612,1.612,0,0,1-.667-2.046c.378-.845,1.134-.667,1.845-.556a5.692,5.692,0,0,1,1.067.222,3.117,3.117,0,0,0,3.357-.711c1.6-1.312,2.668-1.29,4.313.022.867.711,1.623.934,2.468,0,1.4-1.579,3.224-1.112,4.425-.044a2.825,2.825,0,0,0,3.535.6,2.779,2.779,0,0,1,.956-.267,1.445,1.445,0,0,1,1.556.623,1.407,1.407,0,0,1-.089,1.645,2.58,2.58,0,0,1-.511.578c-2.157,1.267-3.4,3.335-4.669,5.358a1.4,1.4,0,0,1-1.356.712C114.974,33.891,113.284,33.913,111.572,33.913Z" transform="translate(-91.712 -23.7)"/>
    <g id="layer1" transform="translate(12.3 21.084)">
      <path id="path2990" d="M122.68,118.5a2.379,2.379,0,0,1,2.068,1.089,5.262,5.262,0,0,1,.889,2.913v4.625h1.223l2.068,2.09h-3.291v5.981a1.934,1.934,0,0,0,.511,1.29,2.268,2.268,0,0,0,1.712.556,5.348,5.348,0,0,0,3.268-1.712,5.614,5.614,0,0,0,1.845-3.6l-.534.044c-1.868,0-2.8-1-2.8-2.979a2.646,2.646,0,0,1,.645-1.8,2.715,2.715,0,0,1,2.2-.8,3.54,3.54,0,0,1,2.735,1.4,5.292,5.292,0,0,1,1.134,3.424,8.313,8.313,0,0,1-2.557,5.736,7.854,7.854,0,0,1-5.981,2.713,4.535,4.535,0,0,1-2.713-1.089,4.318,4.318,0,0,1-1.668-2.2v-6.959h-2.112l-2.023-2.09h4.136v-4.18c0-.845-.511-1.356-1.534-1.49a1.476,1.476,0,0,0-.934.2,9.561,9.561,0,0,1-.756-1.579v-.222c0-.378.311-.689.889-.956a3.847,3.847,0,0,1,1.579-.4" transform="translate(-119.3 -118.496)" fill="#fff"/>
    </g>
  </g>
</svg>
