<svg xmlns="http://www.w3.org/2000/svg" width="262.806" height="59.035" viewBox="0 0 262.806 59.035">
  <g id="Group_254" data-name="Group 254" transform="translate(-82.597 -235.482)">
    <g id="Group_253" data-name="Group 253">
      <path id="Path_1777" data-name="Path 1777" d="M166.1,220.2a1.3,1.3,0,0,1-.8-.3,1,1,0,0,1-.4-.9,1.2,1.2,0,0,1,1.2-1.3h6.6a3,3,0,0,1,2-.9,2.2,2.2,0,0,1,1.9.9h9.5a2.5,2.5,0,0,1,1.3-1.4h.3a3.7,3.7,0,0,1,1.4,1.4h2.8l.9.3a1.3,1.3,0,0,1,.4,1,1,1,0,0,1-.4.9l-.9.3h-2.2v.2a8.7,8.7,0,0,1-.1,1.1c-.1.7-.1,1.6-.2,2.5l-.3,3.1c0,1.1-.1,2.1-.1,2.9q0,7.7.3,8.1a6.1,6.1,0,0,1,.7,2.3,2.8,2.8,0,0,1-.6,1.8,2.4,2.4,0,0,1-2,.9,2,2,0,0,1-1.1-.3,1.9,1.9,0,0,1-.8-.7,3.3,3.3,0,0,1-.6-1,3.4,3.4,0,0,1-.1-1,8.1,8.1,0,0,1,.1-1.6v-1.1a15.1,15.1,0,0,0-.6-4.1,12,12,0,0,0-1.8-4c-.1,0-.2.3-.4.8s-.5,1.1-.7,1.7a14.2,14.2,0,0,0-.8,1.8l-.7,1.2a5.3,5.3,0,0,1-1.5,1.5l-1.4.8-1.1.3h-.7a4.3,4.3,0,0,1-1.7-.4l-.6-.2c-.3,0-.5-.2-.8-.4l-.7-.6-.9-.6-1.8-1.3-1.7-1.5q-.9-.9-.9-1.2c-.1,0-.1-.4-.2-1.1a2.4,2.4,0,0,1,.6-1.5,2.1,2.1,0,0,1,1.8-.8,2.5,2.5,0,0,1,1.4.4,4.1,4.1,0,0,1,1.3,2,5.4,5.4,0,0,0,1.1,1.8,2.1,2.1,0,0,0,1.4.7h.1a1,1,0,0,0,.8-.5,2.4,2.4,0,0,0,.4-1.6c0-1.2-.7-2.9-2.1-5.3a9.8,9.8,0,0,1-1.3-2.4,5.7,5.7,0,0,1-.3-1.8v-.6c0-.2.1-.3.1-.5Zm9.5,1.6v.2a2.3,2.3,0,0,0,.3.9c.3.4.5.9.8,1.4l.9,1.5a4.8,4.8,0,0,1,.5,1.1h.1a4.1,4.1,0,0,1,1-2.2,2.7,2.7,0,0,1,2.2-.9l1.3.2a4.4,4.4,0,0,1,1.1.9,8.5,8.5,0,0,1,1,1.7c.3.7.7,1.5,1.1,2.6h0q0-1.7-.6-8.4v-.4h-8.8a2.9,2.9,0,0,0-.9,1.4Z" transform="translate(-15.803 38.382)" fill="#fff"/>
      <path id="Path_1778" data-name="Path 1778" d="M206.2,216.9a1.6,1.6,0,0,1,.8.6,3.4,3.4,0,0,1,.6,1.2,9.3,9.3,0,0,1,.4,1.3,4.1,4.1,0,0,1,.1,1v.7a1.3,1.3,0,0,1-.1.6v2.5a6.5,6.5,0,0,1,4.3-2l2.1.5a5.6,5.6,0,0,1,1.5,1,3.1,3.1,0,0,1,1,1.3,4,4,0,0,1,.3,1.5,5.9,5.9,0,0,1-1.1,3.2,3.2,3.2,0,0,1,1.3,2.7,3.9,3.9,0,0,1-.4,1.8,5.6,5.6,0,0,1-1,1.5,5.7,5.7,0,0,1-1.6,1.1,3.3,3.3,0,0,1-1.7.4h-.2a5.6,5.6,0,0,1-4.3-1.9l-.5-.6v.7a10.4,10.4,0,0,1,1.1,3.3,11.8,11.8,0,0,1,.1,1.6h0a2.5,2.5,0,0,1-.6,1.6,1.8,1.8,0,0,1-1.7.7,2.5,2.5,0,0,1-1.6-.6,2.2,2.2,0,0,1-.7-1.7,1.9,1.9,0,0,1,.2-.8,2,2,0,0,0,.1-.7,5.3,5.3,0,0,0-.6-2.6,8.7,8.7,0,0,0-1.6-1.7,7,7,0,0,0-1.6-1l-1.1-.5a13.9,13.9,0,0,0-3.2-.5c-.5,0-.9,0-1.1.2l-.7.2h-.5a2.2,2.2,0,0,1-1.5-.8,2,2,0,0,1-.6-1.5,1.8,1.8,0,0,1,.3-1.1l.8-.8.9-.4,1-.3,1.5-.7,1.6-.9,2-1.1,2.6-1.4h.1l-.7-.9-.7-.8a4.1,4.1,0,0,0-1.1-.7,6.9,6.9,0,0,0-1.7-.5h-1.2l.3.7a3,3,0,0,1,.2,1.3v.2a3,3,0,0,1-.8,2.2,2.9,2.9,0,0,1-2.1.9l-1.2-.2a4.1,4.1,0,0,1-1.1-.7,4.4,4.4,0,0,1-.8-1.1,3.2,3.2,0,0,1-.3-1.4v-.3a7.4,7.4,0,0,1,.2-1.2,5.3,5.3,0,0,1,.6-1.4,6.9,6.9,0,0,1,1.1-1.3,5.1,5.1,0,0,1,1.8-.9l.9-.2,1.2-.2h.7a8.9,8.9,0,0,1,3.7,1.1,13.7,13.7,0,0,1,2.6,2h.1v-.5a5.2,5.2,0,0,1,.2-1.1l.3-1.2.6-1A.7.7,0,0,1,206.2,216.9ZM200,230.2a13.4,13.4,0,0,1,4.8,2.3v-4.7l-2.4,1.1Zm7.9-.2h0a4.4,4.4,0,0,0,.3,1.4,10.1,10.1,0,0,0,.7,1.5,3.4,3.4,0,0,0,1.2,1.2,2.9,2.9,0,0,0,1.7.5h.5l.6-.3.6-.4a.8.8,0,0,0,.2-.5,1.3,1.3,0,0,0-.7-.4h-1.6l-.7-.5a2.2,2.2,0,0,1-.5-.8c-.2-.2-.2-.5-.2-.9a2.5,2.5,0,0,1,.1-.8,3.5,3.5,0,0,1,.5-.8,3.1,3.1,0,0,1,1-.5,2.8,2.8,0,0,1,1.4-.2c.4-.2.5-.4.5-.7h0a.9.9,0,0,0-.3-.6c-.1-.2-.4-.3-.7-.4h-.4a3.8,3.8,0,0,0-1.6.6,3.6,3.6,0,0,0-1.2.8l-.7.8-.3.6Z" transform="translate(-15.803 38.382)" fill="#fff"/>
      <path id="Path_1779" data-name="Path 1779" d="M218.8,220.3a1.3,1.3,0,0,1,0-2.6h13.9l.3-.6c.5-.9,1-1.4,1.3-1.4a4.1,4.1,0,0,1,1.6,1.8v.2h2.9a1.3,1.3,0,0,1,0,2.6h-2.2v.4c0,.7,0,1.5-.1,2.7a24.9,24.9,0,0,0-.2,4.1v2.7a16.2,16.2,0,0,1-.1,2.1c0,.8,0,1.7-.1,2.8v.3a6.8,6.8,0,0,1,1,2.1,20,20,0,0,1,.4,2.4,3.8,3.8,0,0,1-.8,2.3,2.5,2.5,0,0,1-2.2,1h0a3.2,3.2,0,0,1-2-.8,2.6,2.6,0,0,1-.9-2.1,3.4,3.4,0,0,1,.4-1.6v-.3a4.3,4.3,0,0,0-1.2-2.2,9,9,0,0,0-1.9-1.5l-2-.9-1.3-.4-.9-.3h-1.5l-1.4.4h-.6l-1-.2-.9-.7a2,2,0,0,1-.6-.9,2.3,2.3,0,0,1-.3-1.1,3.2,3.2,0,0,1,.8-2,2.7,2.7,0,0,1,2.2-.9h1.4a1.5,1.5,0,0,0,.9-.2l1-.5a3,3,0,0,0,.8-.8,1.9,1.9,0,0,0,.3-1h0a1.8,1.8,0,0,0-.6-1.3,4.5,4.5,0,0,0-1.4-1l-1.3-.3a3.3,3.3,0,0,1-1.7-1.6,3.2,3.2,0,0,0-.2-.6Zm7.5,14.5h.1a2.8,2.8,0,0,1,1.8.6,2.2,2.2,0,0,1,.8,1.5,1.6,1.6,0,0,1-.3.9,2.9,2.9,0,0,1,.2.9,2.6,2.6,0,0,1-.7,1.8,2.5,2.5,0,0,1-2,.8,2.6,2.6,0,0,1-1.9-.9,2.8,2.8,0,0,1-1-2.3,5.2,5.2,0,0,1,.2-1.1l.6-1.1.9-.8a2.8,2.8,0,0,1,1.3-.3Zm2.7-14.5a9,9,0,0,1,1,1.2l.7.9.3.9v1.2a8,8,0,0,1-.6,3,9.1,9.1,0,0,1-1.8,2.7l1.2.5,1.4.7,1.4.9a.8.8,0,0,1-.1-.4V230a8.1,8.1,0,0,0,.1-1.6v-1.8a6.8,6.8,0,0,0-.1-1.2c0-.5-.1-1.1-.1-1.8a10.9,10.9,0,0,1-.1-1.8,8.6,8.6,0,0,1-.1-1.5Z" transform="translate(-15.803 38.382)" fill="#fff"/>
      <path id="Path_1787" data-name="Path 1787" d="M150.2,221.8v-8.4a4.7,4.7,0,0,0-4.7-4.7H98.4v37.4h47a4.9,4.9,0,0,0,4.8-4.9V233H138.8a2,2,0,0,1-2-2v-7.2a2,2,0,0,1,2-2Z" transform="translate(-15.803 38.382)" fill="#fff"/>
    </g>
    <g id="Group_252" data-name="Group 252">
      <path id="Path_1780" data-name="Path 1780" d="M262.2,206.1h.6a3.1,3.1,0,0,1,1.3.3l1.2.5a2.7,2.7,0,0,1,.8.7,1.3,1.3,0,0,1,.3.8c0,.1-.3.3-.8.5a5.6,5.6,0,0,1-2,.3h-1.1l-2-.2a8.9,8.9,0,0,0-4.3,1.1,15.4,15.4,0,0,0-3.6,2.7,18.3,18.3,0,0,0-2.6,3.6,16,16,0,0,0-1.7,3.5,21.5,21.5,0,0,0-1,5.9v.5a16.5,16.5,0,0,0,.5,3.8,11.9,11.9,0,0,0,1.5,3.5,9.9,9.9,0,0,0,2.5,2.9,11.4,11.4,0,0,0,3.7,2.2,12.3,12.3,0,0,0,4.3.9h.4a7.8,7.8,0,0,0,2.1-.4,10.2,10.2,0,0,0,2.1-.8,7.4,7.4,0,0,0,1.6-1.2,2.1,2.1,0,0,0,.7-1.5c0-.1-.1-.3-.4-.5l-.9-.5-1.1-.4-1-.2-1.1.3h-1.4l-.8-.5-.7-.9a3.6,3.6,0,0,1-.2-1.1v-.2a2.4,2.4,0,0,1,.6-1.7,3.4,3.4,0,0,1,1.2-.9l1.2-.4a1,1,0,0,0,.7-.2l.8-.4.7-.7.6-.9a1.9,1.9,0,0,0,.3-1v-.7l-.4-1a2.8,2.8,0,0,0-.7-.9,1.8,1.8,0,0,0-1-.7,3.2,3.2,0,0,0-1.4-.3,6.2,6.2,0,0,0-3.5,1.2l-.3.3a2.9,2.9,0,0,1,1.5,1.4,3.5,3.5,0,0,1,.5,2,4.1,4.1,0,0,1-.2,1.5,6.1,6.1,0,0,1-.7,1.4,4.6,4.6,0,0,1-1.2,1.2,2.9,2.9,0,0,1-1.6.4l-1.6-.2a5.7,5.7,0,0,1-1.3-.8l-.9-1.2a4.1,4.1,0,0,1-.3-1.6h0a9.7,9.7,0,0,1,1.3-4.9,10.5,10.5,0,0,1,4-3.8l1.5-.6,1-.4h1.7a7.1,7.1,0,0,1,2.9.5,7,7,0,0,1,2.4,1.3,6.4,6.4,0,0,1,2.3,5.1h0q0,2.7-2.7,6a6.4,6.4,0,0,1,2.2.6l1.3.9a4.1,4.1,0,0,1,.7,1.1,5.1,5.1,0,0,1,.2,1.3,4.9,4.9,0,0,1-.5,1.8,10.2,10.2,0,0,1-1.3,1.8,15.4,15.4,0,0,1-1.9,1.7,12.2,12.2,0,0,1-2.4,1,10.2,10.2,0,0,1-3.3.4,11.6,11.6,0,0,1-4-.7,13.8,13.8,0,0,1-3.9-1.8,17.5,17.5,0,0,1-3.3-2.8,9.1,9.1,0,0,1-2.1-3.7,16.9,16.9,0,0,1-1.3-6.3,18.1,18.1,0,0,1,1.2-6.4,21.6,21.6,0,0,1,3.7-6.5l1-1.1,1.8-1.7,1.9-1.6a11,11,0,0,1,1.6-1.2l.8-.4,1.2-.4,1.2-.4Z" transform="translate(-15.803 38.382)" fill="#d4d4d4"/>
      <path id="Path_1781" data-name="Path 1781" d="M272.4,220.3a1.3,1.3,0,0,1,0-2.6h13.9l.3-.6c.6-.9,1-1.4,1.3-1.4a3.6,3.6,0,0,1,1.6,1.8v.2h2.9a1.3,1.3,0,0,1,0,2.6h-2.2v.4c0,.7-.1,1.5-.2,2.7s-.2,2.5-.2,4.1v4.8c-.1.8-.1,1.7-.2,2.8v.3a5.1,5.1,0,0,1,1,2.1,10,10,0,0,1,.4,2.4,3.7,3.7,0,0,1-.7,2.3,2.6,2.6,0,0,1-2.2,1H288a3.4,3.4,0,0,1-2-.8,2.6,2.6,0,0,1-.9-2.1,3.4,3.4,0,0,1,.4-1.6v-.3a4.3,4.3,0,0,0-1.2-2.2,9,9,0,0,0-1.9-1.5l-2-.9-1.3-.4-.9-.3h-1.5l-1.4.4h-.6l-1-.2-.9-.7-.6-.9a2.2,2.2,0,0,1-.2-1.1,3.1,3.1,0,0,1,.7-2,2.8,2.8,0,0,1,2.2-.9h1.5a1.8,1.8,0,0,0,.9-.2l.9-.5a3,3,0,0,0,.8-.8,1.9,1.9,0,0,0,.3-1h0a1.8,1.8,0,0,0-.6-1.3,4.5,4.5,0,0,0-1.4-1l-1.3-.3a3.3,3.3,0,0,1-1.7-1.6c-.1-.4-.1-.6-.2-.6Zm7.5,14.5h.2a2.7,2.7,0,0,1,1.7.6,2.2,2.2,0,0,1,.8,1.5,1.6,1.6,0,0,1-.3.9,1.5,1.5,0,0,1,.2.9,3,3,0,0,1-.6,1.8,2.78,2.78,0,0,1-4-.1,3,3,0,0,1-.9-2.3,2.3,2.3,0,0,1,.2-1.1,3.7,3.7,0,0,1,.5-1.1,3.9,3.9,0,0,1,1-.8A2.1,2.1,0,0,1,279.9,234.8Zm2.8-14.5,1,1.2.6.9.3.9c0,.3.1.7.1,1.2a8,8,0,0,1-.6,3,12,12,0,0,1-1.9,2.7l1.3.5,1.3.7,1.4.9c0-.2-.1-.3-.1-.4v-.2a9.7,9.7,0,0,1,.1-1.7v-4.6c-.1-.5-.1-1.1-.2-1.8a11.483,11.483,0,0,1-.1-1.8,8.6,8.6,0,0,1-.1-1.5Z" transform="translate(-15.803 38.382)" fill="#d4d4d4"/>
      <path id="Path_1782" data-name="Path 1782" d="M293.3,217.7l.9-1a1.9,1.9,0,0,1,1.2-.4l.7.2c.2,0,.4.2.6.4l.5.6.7.8.2.7a1.2,1.2,0,0,1-.4.9c-.2,2.4-.4,4.5-.4,6.4V229a45.6,45.6,0,0,1,2.4-7.9,32.2,32.2,0,0,1,4.3-7,12,12,0,0,1,1.5-1.6,4.4,4.4,0,0,1,1.1-.9l.9-.3h1.1a1.5,1.5,0,0,1,1,.3,3.6,3.6,0,0,1-.7,1,4.5,4.5,0,0,1-1,.9l-1.6,1.1-2.1,1.6a15.7,15.7,0,0,0-1.9,2.1l-1.2,1.7a18,18,0,0,0-1.1,2,12.8,12.8,0,0,0-1,2.6,34.6,34.6,0,0,0-1.1,3.7,9.3,9.3,0,0,0-.4,1.9,6.5,6.5,0,0,0-.2,1.1v7.4c0,1.5.1,2.8.1,3.9s.1,1.9.1,2.6.1,1.1.1,1.4.1.6.1.8a1.3,1.3,0,0,1,.1.6,1.8,1.8,0,0,0,.1.6,3.3,3.3,0,0,1-1.1,2.2,2.6,2.6,0,0,1-1.9.7,2.9,2.9,0,0,1-1.9-.8,2.7,2.7,0,0,1-1-2.1h0c0-.2.1-.3.1-.4v-.4a6.4,6.4,0,0,0,.2-.7c.1-.3.1-.7.2-1.2s.2-1.2.3-2.1.2-1.9.3-3.2.1-1.6.2-2.5v-3.2c0-1.8-.1-3.6-.1-5.4s-.1-3.5-.1-5.3l-.2-3.7h-.4a1.3,1.3,0,0,1,0-2.6Z" transform="translate(-15.803 38.382)" fill="#d4d4d4"/>
      <path id="Path_1783" data-name="Path 1783" d="M302,217.7h9l.4-.2.9-.4,1-.3.8-.2a2.7,2.7,0,0,1,1.7.6,2,2,0,0,1,.8,1.7v.7a2.5,2.5,0,0,1-.4.7l-.9.6-1.9.8a4.7,4.7,0,0,0-1.6,1l-1.6,1.3-1.4,1.4c-.3.4-.6.7-.6.9a12.7,12.7,0,0,0-1.3,2.2,24.4,24.4,0,0,0-1,2.4,20.5,20.5,0,0,0-.5,2.4,9.8,9.8,0,0,0-.2,2.3v2.2a14.2,14.2,0,0,0,.4,2,8.4,8.4,0,0,0,.8,2,14.7,14.7,0,0,0,1.3,2.4,15.4,15.4,0,0,0,2.3,2.9,23.7,23.7,0,0,0,3,2.3,16.6,16.6,0,0,0,3.3,1.5,11.2,11.2,0,0,0,3.6.5h.7a10.8,10.8,0,0,0,5.5-1.6,7.1,7.1,0,0,1,2.6-.9h0a2.5,2.5,0,0,1-.5,1.6,8.6,8.6,0,0,1-1.7,1.5,7.8,7.8,0,0,1-2.6,1,11.8,11.8,0,0,1-3.4.4,15.2,15.2,0,0,1-7.4-1.9,19,19,0,0,1-4-2.5,15.9,15.9,0,0,1-3.4-3.9,17,17,0,0,1-3.7-10.4,17.4,17.4,0,0,1,.5-3.9,28.4,28.4,0,0,1,1.3-3.8,20.9,20.9,0,0,1,1.9-3.6,36.2,36.2,0,0,1,2.2-3.2H302a1,1,0,0,1-.7-.4,1.36,1.36,0,0,1,.7-2.1Z" transform="translate(-15.803 38.382)" fill="#d4d4d4"/>
      <path id="Path_1784" data-name="Path 1784" d="M312.9,220.3a1.3,1.3,0,0,1,0-2.6h20.8a4.1,4.1,0,0,1,.9-1.2l.6-.5c.5.1,1,.7,1.5,1.7h2.9a.9.9,0,0,1,.8.4,1.2,1.2,0,0,1,0,1.8.9.9,0,0,1-.8.4h-2.2a23.594,23.594,0,0,1-.3,2.4c-.1,1.3-.3,3-.5,5.3a10.94,10.94,0,0,0-.1,2.4,16.207,16.207,0,0,0-.1,2.2v1.1l.2.5a10.9,10.9,0,0,1,.5,1.4c.2.6.3,1.3.5,2.1a18.692,18.692,0,0,1,.4,2.5,2.6,2.6,0,0,1-.9,2.1,2.9,2.9,0,0,1-1.9.8,2.5,2.5,0,0,1-1.9-.8,2.6,2.6,0,0,1-.9-2.1v-.5a3.7,3.7,0,0,0,.1-1.1l.2-3c0-1-.1-1.8-.1-2.4l-.3-1.5a1.9,1.9,0,0,0-.4-.9,3,3,0,0,0-.4-.8l-.2-.4-.4-.6-.4-.5-.4-.2-.7,1a2.3,2.3,0,0,0-.3,1.1l-.2.8a4.5,4.5,0,0,1,.6,2,2.8,2.8,0,0,1-.7,1.9,2.6,2.6,0,0,1-2.1.9l-.9-.2a2.1,2.1,0,0,1-1-.6,3.5,3.5,0,0,1-.6-.9,2.7,2.7,0,0,1-.3-1.2,19.39,19.39,0,0,0,.3-2.2,5.1,5.1,0,0,0-.3-1.7,8.9,8.9,0,0,0-.8-1.7,3.7,3.7,0,0,0-1.3-1.2,3.4,3.4,0,0,0-1.7-.5,3.7,3.7,0,0,0-2.3.7,5.2,5.2,0,0,0-1.6,2.2h1.1a3.1,3.1,0,0,1,1.3.3,3.3,3.3,0,0,1,1.3.7,6.4,6.4,0,0,1,1,1.3,3.3,3.3,0,0,1,.4,1.7h0a6.8,6.8,0,0,1-.2,1.4,7.5,7.5,0,0,1-.7,1.2,3.4,3.4,0,0,1-1.2.9,3.7,3.7,0,0,1-1.5.3h-.1a3.2,3.2,0,0,1-1.9-.5,5.1,5.1,0,0,1-1.6-1.3,7,7,0,0,1-1.1-2.1,10.1,10.1,0,0,1-.4-2.5,8.1,8.1,0,0,1,.6-3.1,15.3,15.3,0,0,1,1.6-2.5,9.1,9.1,0,0,1,2.3-1.7,6.8,6.8,0,0,1,4.8-.3,4.6,4.6,0,0,1,1.6.7l1.3,1,1.2,1.5a3.2,3.2,0,0,1,3.2-2.8h.1a3.1,3.1,0,0,1,2.3,1.1,19.6,19.6,0,0,1,1.9,3.4h0c-.1-2-.2-3.6-.3-4.7s-.1-1.8-.1-1.9v-.4H312.9Z" transform="translate(-15.803 38.382)" fill="#d4d4d4"/>
      <path id="Path_1785" data-name="Path 1785" d="M340.1,220.3h-.5a1.3,1.3,0,0,1,0-2.6h.3c.1-.1.2-.2.2-.6a4.7,4.7,0,0,1,.9-1.2,2.4,2.4,0,0,1,1.2-.5h.1a2.2,2.2,0,0,1,1.4.6,3.2,3.2,0,0,1,1,1.7h5.5a5,5,0,0,0,1.9-1,6.1,6.1,0,0,0,1.6-1.6,10.3,10.3,0,0,0,1.1-2.1,7.1,7.1,0,0,0,.4-2.6v-.8a15.406,15.406,0,0,0-.2-1.9,10.5,10.5,0,0,0-.8-2.3A13.4,13.4,0,0,0,353,203a6.8,6.8,0,0,0-1.7-2.1,9.8,9.8,0,0,0-6.8-3,7.5,7.5,0,0,0-2.9.6,8.8,8.8,0,0,0-2.8,1.6,7.9,7.9,0,0,0-1.9,2.5,5.9,5.9,0,0,0-.8,3.2v.3a5.9,5.9,0,0,0,.5,2.5,8.2,8.2,0,0,0,3.6,4.1,6,6,0,0,0,3,.7h.1a4.8,4.8,0,0,0,1.8-.3l1.6-.8a8,8,0,0,1,1.6-.8,8.4,8.4,0,0,1,1.9-.7h.8c.1,0,.2.2.2.6v.3a2.5,2.5,0,0,1-.2.7l-.5.8-.7.6-.7.3-.7.3h-4a13.6,13.6,0,0,1-3.6-.5,7.3,7.3,0,0,1-2.8-1.7,6.8,6.8,0,0,1-2-2.7,8.9,8.9,0,0,1-.7-3.8h0a8.7,8.7,0,0,1,.7-3.7,9,9,0,0,1,2.1-2.7,7.5,7.5,0,0,1,2.9-1.6,11.5,11.5,0,0,1,3.7-.6h2.2a10.6,10.6,0,0,1,1.9.6l2,1.1,2.1,1.7a16.5,16.5,0,0,1,4.6,11.7,9.7,9.7,0,0,1-.8,4.1l-.6,1.1h3.8a1.3,1.3,0,0,1,0,2.6H344.6a10.3,10.3,0,0,0-.1,1.7v6.5c-.1,2.2-.1,4.9-.1,8.1a.8.8,0,0,0,.2.6l.7.7,1.2.6a3.3,3.3,0,0,0,1.5.3,5.3,5.3,0,0,0,2.4-.6,7.3,7.3,0,0,0,2.2-1.6,9.8,9.8,0,0,0,1.6-2.1,5.3,5.3,0,0,0,.6-2.3v-.5a4,4,0,0,0-.9-2.3l-.2-.2v.9a3.1,3.1,0,0,1-.3,1.3,2,2,0,0,1-.8,1.2,4.5,4.5,0,0,1-3,1.3,4,4,0,0,1-1.5-.3,3.4,3.4,0,0,1-1.2-.9,3.8,3.8,0,0,1-.9-1.3,4.1,4.1,0,0,1-.3-1.6v-.2a2.7,2.7,0,0,1,.4-1.3,7,7,0,0,1,1-1.6,10.3,10.3,0,0,1,1.5-1.4,5.6,5.6,0,0,1,1.7-.9,2.7,2.7,0,0,1,1.2-.3l1.1-.2h.1a4.8,4.8,0,0,1,2.4.6,5.5,5.5,0,0,1,1.8,1.6,12.3,12.3,0,0,1,1.1,2.3,13.6,13.6,0,0,1,.3,2.9,9.2,9.2,0,0,1-.7,3.8,11.2,11.2,0,0,1-1.8,2.8,13.7,13.7,0,0,1-2.3,2,13.5,13.5,0,0,1-2.1,1.3,16.9,16.9,0,0,1-5.2,1.3h-.1a7.8,7.8,0,0,1-2.1-.4,6.9,6.9,0,0,1-1.9-1l-1.5-1.4a17.392,17.392,0,0,1-1.1-1.8h0c0-1.1.1-2.3.2-3.7v-1.7c0-.7.1-1.5.1-2.4v-4.9c.1-2.4.2-4,.2-4.7Z" transform="translate(-15.803 38.382)" fill="#d4d4d4"/>
      <path id="Path_1786" data-name="Path 1786" d="M98.4,246.1h36.4v5.2a4.9,4.9,0,0,1-6.4,4.6Z" transform="translate(-15.803 38.382)" fill="#d4d4d4"/>
      <circle id="Ellipse_176" data-name="Ellipse 176" cx="1.9" cy="1.9" r="1.9" transform="translate(126.497 263.882)" fill="#d4d4d4"/>
    </g>
  </g>
</svg>
