<svg xmlns="http://www.w3.org/2000/svg" width="165.26" height="37.123" viewBox="0 0 165.26 37.123">
  <g id="Group_255" data-name="Group 255" transform="translate(-2504.322 -1511.482)">
    <g id="Group_251" data-name="Group 251" transform="translate(2504.322 1511.482)">
      <path id="Path_1777" data-name="Path 1777" d="M165.653,218.752a.818.818,0,0,1-.5-.189A.629.629,0,0,1,164.9,218a.753.753,0,0,1,.755-.817h4.15a1.886,1.886,0,0,1,1.258-.566,1.383,1.383,0,0,1,1.195.566h5.974a1.572,1.572,0,0,1,.817-.88h.189a2.327,2.327,0,0,1,.88.88h1.761l.566.189a.817.817,0,0,1,.252.629.629.629,0,0,1-.252.566l-.566.189h-1.383v.126a5.48,5.48,0,0,1-.063.692c-.063.44-.063,1.006-.126,1.572l-.189,1.949c0,.692-.063,1.321-.063,1.824a28.993,28.993,0,0,0,.189,5.093,3.836,3.836,0,0,1,.44,1.446,1.761,1.761,0,0,1-.377,1.132,1.509,1.509,0,0,1-1.258.566,1.258,1.258,0,0,1-.692-.189,1.2,1.2,0,0,1-.5-.44,2.076,2.076,0,0,1-.377-.629,2.137,2.137,0,0,1-.063-.629,5.093,5.093,0,0,1,.063-1.006v-.692a9.494,9.494,0,0,0-.377-2.578,7.546,7.546,0,0,0-1.132-2.515c-.063,0-.126.189-.252.5s-.314.692-.44,1.069a8.926,8.926,0,0,0-.5,1.132l-.44.755a3.333,3.333,0,0,1-.943.943l-.88.5-.692.189h-.44a2.7,2.7,0,0,1-1.069-.252l-.377-.126c-.189,0-.314-.126-.5-.252l-.44-.377-.566-.377-1.132-.817-1.069-.943q-.566-.566-.566-.755c-.063,0-.063-.252-.126-.692a1.509,1.509,0,0,1,.377-.943,1.321,1.321,0,0,1,1.132-.5,1.572,1.572,0,0,1,.88.252,2.578,2.578,0,0,1,.817,1.258,3.4,3.4,0,0,0,.692,1.132,1.321,1.321,0,0,0,.88.44h.063a.629.629,0,0,0,.5-.314,1.509,1.509,0,0,0,.252-1.006,7.672,7.672,0,0,0-1.321-3.333,6.162,6.162,0,0,1-.818-1.509,3.585,3.585,0,0,1-.189-1.132v-.377c0-.126.063-.189.063-.314Zm5.974,1.006v.126a1.446,1.446,0,0,0,.189.566c.189.251.314.566.5.88l.566.943a3.018,3.018,0,0,1,.314.692h.063a2.578,2.578,0,0,1,.629-1.383,1.7,1.7,0,0,1,1.383-.566l.817.126a2.766,2.766,0,0,1,.692.566,5.344,5.344,0,0,1,.629,1.069c.189.44.44.943.692,1.635h0q0-1.069-.377-5.282v-.251h-5.534A1.823,1.823,0,0,0,171.627,219.759Z" transform="translate(-123.081 -204.226)" fill="#d6001b"/>
      <path id="Path_1778" data-name="Path 1778" d="M200.818,216.9a1.006,1.006,0,0,1,.5.377,2.138,2.138,0,0,1,.377.755,5.84,5.84,0,0,1,.252.817,2.578,2.578,0,0,1,.063.629v.44a.818.818,0,0,1-.063.377v1.572a4.087,4.087,0,0,1,2.7-1.258l1.321.314a3.521,3.521,0,0,1,.943.629,1.949,1.949,0,0,1,.629.817,2.515,2.515,0,0,1,.189.943,3.71,3.71,0,0,1-.692,2.012,2.012,2.012,0,0,1,.817,1.7,2.453,2.453,0,0,1-.251,1.132,3.522,3.522,0,0,1-.629.943,3.585,3.585,0,0,1-1.006.692,2.076,2.076,0,0,1-1.069.252h-.126a3.522,3.522,0,0,1-2.7-1.195l-.314-.377v.44a6.54,6.54,0,0,1,.692,2.075,7.424,7.424,0,0,1,.063,1.006h0a1.572,1.572,0,0,1-.377,1.006,1.132,1.132,0,0,1-1.069.44,1.572,1.572,0,0,1-1.006-.377,1.384,1.384,0,0,1-.44-1.069,1.2,1.2,0,0,1,.126-.5,1.258,1.258,0,0,0,.063-.44,3.333,3.333,0,0,0-.377-1.635,5.471,5.471,0,0,0-1.006-1.069,4.4,4.4,0,0,0-1.006-.629l-.692-.314a8.74,8.74,0,0,0-2.012-.314c-.314,0-.566,0-.692.126l-.44.126h-.314a1.384,1.384,0,0,1-.943-.5,1.258,1.258,0,0,1-.377-.943,1.132,1.132,0,0,1,.189-.692l.5-.5.566-.252.629-.189.943-.44,1.006-.566,1.258-.692,1.635-.88h.063l-.44-.566-.44-.5a2.578,2.578,0,0,0-.692-.44,4.336,4.336,0,0,0-1.069-.314h-.755l.189.44a1.887,1.887,0,0,1,.126.818v.126a1.886,1.886,0,0,1-.5,1.383,1.824,1.824,0,0,1-1.321.566l-.755-.126a2.577,2.577,0,0,1-.692-.44,2.767,2.767,0,0,1-.5-.692,2.012,2.012,0,0,1-.189-.88v-.189a4.651,4.651,0,0,1,.126-.755,3.333,3.333,0,0,1,.377-.88,4.339,4.339,0,0,1,.692-.817,3.207,3.207,0,0,1,1.132-.566l.566-.126.755-.126h.44a5.6,5.6,0,0,1,2.327.692,8.614,8.614,0,0,1,1.635,1.258h.063v-.314a3.269,3.269,0,0,1,.126-.692l.189-.755.377-.629A.44.44,0,0,1,200.818,216.9Zm-3.9,8.363a8.426,8.426,0,0,1,3.018,1.446v-2.956l-1.509.692Zm4.968-.126h0a2.768,2.768,0,0,0,.189.88,6.353,6.353,0,0,0,.44.943,2.138,2.138,0,0,0,.755.755,1.824,1.824,0,0,0,1.069.314h.314l.377-.189.377-.252a.5.5,0,0,0,.126-.314.818.818,0,0,0-.44-.252h-1.006l-.44-.314a1.383,1.383,0,0,1-.314-.5c-.126-.126-.126-.314-.126-.566a1.572,1.572,0,0,1,.063-.5,2.2,2.2,0,0,1,.314-.5,1.949,1.949,0,0,1,.629-.314,1.76,1.76,0,0,1,.88-.126c.252-.126.314-.252.314-.44h0a.566.566,0,0,0-.189-.377c-.063-.126-.252-.189-.44-.252h-.252a2.39,2.39,0,0,0-1.006.377,2.264,2.264,0,0,0-.755.5l-.44.5-.189.377Z" transform="translate(-133.03 -204.449)" fill="#d6001b"/>
      <path id="Path_1779" data-name="Path 1779" d="M218.315,218.593a.818.818,0,0,1,0-1.635h8.741l.189-.377c.314-.566.629-.88.817-.88a2.579,2.579,0,0,1,1.006,1.132v.126h1.824a.818.818,0,0,1,0,1.635h-1.383v.252c0,.44,0,.943-.063,1.7a15.652,15.652,0,0,0-.126,2.578v1.7a10.2,10.2,0,0,1-.063,1.321c0,.5,0,1.069-.063,1.761v.189a4.275,4.275,0,0,1,.629,1.321,12.579,12.579,0,0,1,.252,1.509,2.39,2.39,0,0,1-.5,1.446,1.572,1.572,0,0,1-1.383.629h0a2.012,2.012,0,0,1-1.258-.5,1.635,1.635,0,0,1-.566-1.321,2.138,2.138,0,0,1,.252-1.006v-.189a2.7,2.7,0,0,0-.755-1.383,5.659,5.659,0,0,0-1.195-.943l-1.258-.566-.818-.252-.566-.189h-.943l-.88.252h-.377l-.629-.126-.566-.44a1.257,1.257,0,0,1-.377-.566,1.447,1.447,0,0,1-.189-.692,2.013,2.013,0,0,1,.5-1.258,1.7,1.7,0,0,1,1.383-.566h.88a.943.943,0,0,0,.566-.126l.629-.314a1.887,1.887,0,0,0,.5-.5,1.2,1.2,0,0,0,.189-.629h0a1.132,1.132,0,0,0-.377-.817,2.83,2.83,0,0,0-.88-.629l-.818-.189a2.075,2.075,0,0,1-1.069-1.006,2.012,2.012,0,0,0-.126-.377Zm4.716,9.118h.063a1.761,1.761,0,0,1,1.132.377,1.383,1.383,0,0,1,.5.943,1.006,1.006,0,0,1-.189.566,1.823,1.823,0,0,1,.126.566,1.635,1.635,0,0,1-.44,1.132,1.572,1.572,0,0,1-1.258.5,1.635,1.635,0,0,1-1.195-.566,1.761,1.761,0,0,1-.629-1.446,3.269,3.269,0,0,1,.126-.692l.377-.692.566-.5A1.761,1.761,0,0,1,223.031,227.711Zm1.7-9.118a5.66,5.66,0,0,1,.629.755l.44.566.189.566v.755a5.03,5.03,0,0,1-.377,1.886,5.722,5.722,0,0,1-1.132,1.7l.755.314.88.44.88.566a.5.5,0,0,1-.063-.252v-1.195a5.092,5.092,0,0,0,.063-1.006v-1.132a4.278,4.278,0,0,0-.063-.755c0-.314-.063-.692-.063-1.132a6.851,6.851,0,0,1-.063-1.132,5.4,5.4,0,0,1-.063-.943Z" transform="translate(-142.604 -204.004)" fill="#d6001b"/>
      <path id="Path_1780" data-name="Path 1780" d="M256.521,206.1h.377a1.95,1.95,0,0,1,.818.189l.755.314a1.7,1.7,0,0,1,.5.44.817.817,0,0,1,.189.5c0,.063-.189.189-.5.314a3.522,3.522,0,0,1-1.258.189h-.692l-1.258-.126a5.6,5.6,0,0,0-2.7.692,9.685,9.685,0,0,0-2.264,1.7,11.509,11.509,0,0,0-1.635,2.264,10.061,10.061,0,0,0-1.069,2.2,13.52,13.52,0,0,0-.629,3.71v.314a10.373,10.373,0,0,0,.314,2.39,7.483,7.483,0,0,0,.943,2.2,6.225,6.225,0,0,0,1.572,1.824,7.168,7.168,0,0,0,2.327,1.383,7.734,7.734,0,0,0,2.7.566h.252a4.905,4.905,0,0,0,1.32-.252,6.414,6.414,0,0,0,1.321-.5,4.654,4.654,0,0,0,1.006-.755,1.321,1.321,0,0,0,.44-.943c0-.063-.063-.189-.252-.314l-.566-.314-.692-.252-.629-.126-.692.189h-.88l-.5-.314-.44-.566a2.263,2.263,0,0,1-.126-.692V222.2a1.509,1.509,0,0,1,.377-1.069,2.138,2.138,0,0,1,.755-.566l.755-.252a.629.629,0,0,0,.44-.126l.5-.252.44-.44.377-.566a1.2,1.2,0,0,0,.189-.629v-.44l-.252-.629a1.761,1.761,0,0,0-.44-.566,1.132,1.132,0,0,0-.629-.44,2.012,2.012,0,0,0-.88-.189,3.9,3.9,0,0,0-2.2.755l-.189.189a1.824,1.824,0,0,1,.943.88,2.2,2.2,0,0,1,.314,1.258,2.579,2.579,0,0,1-.126.943,3.838,3.838,0,0,1-.44.88,2.892,2.892,0,0,1-.755.755,1.824,1.824,0,0,1-1.006.252l-1.006-.126a3.585,3.585,0,0,1-.817-.5l-.566-.755a2.578,2.578,0,0,1-.189-1.006h0a6.1,6.1,0,0,1,.817-3.081,6.6,6.6,0,0,1,2.515-2.39l.943-.377.629-.252h1.069a4.465,4.465,0,0,1,1.824.314,4.4,4.4,0,0,1,1.509.817,4.025,4.025,0,0,1,1.446,3.207h0a6.225,6.225,0,0,1-1.7,3.773,4.025,4.025,0,0,1,1.383.377l.818.566a2.58,2.58,0,0,1,.44.692,3.206,3.206,0,0,1,.126.817,3.081,3.081,0,0,1-.314,1.132,6.411,6.411,0,0,1-.817,1.132,9.685,9.685,0,0,1-1.195,1.069,7.674,7.674,0,0,1-1.509.629,6.414,6.414,0,0,1-2.075.252,7.294,7.294,0,0,1-2.515-.44,8.677,8.677,0,0,1-2.452-1.132,11,11,0,0,1-2.075-1.761,5.722,5.722,0,0,1-1.321-2.327,10.627,10.627,0,0,1-.817-3.962,11.382,11.382,0,0,1,.755-4.025,13.583,13.583,0,0,1,2.327-4.087l.629-.692,1.132-1.069,1.195-1.006a6.915,6.915,0,0,1,1.006-.755l.5-.252.755-.252.755-.252Z" transform="translate(-153.519 -200.441)" fill="#5f6368"/>
      <path id="Path_1781" data-name="Path 1781" d="M271.915,218.593a.818.818,0,0,1,0-1.635h8.741l.189-.377c.377-.566.629-.88.817-.88a2.264,2.264,0,0,1,1.006,1.132v.126h1.824a.818.818,0,0,1,0,1.635h-1.383v.252c0,.44-.063.943-.126,1.7s-.126,1.572-.126,2.578v3.018c-.063.5-.063,1.069-.126,1.761v.189a3.207,3.207,0,0,1,.629,1.321,6.288,6.288,0,0,1,.251,1.509,2.327,2.327,0,0,1-.44,1.446,1.635,1.635,0,0,1-1.383.629h-.063a2.138,2.138,0,0,1-1.258-.5,1.635,1.635,0,0,1-.566-1.321,2.138,2.138,0,0,1,.252-1.006v-.189a2.7,2.7,0,0,0-.755-1.383,5.66,5.66,0,0,0-1.195-.943l-1.258-.566-.817-.252-.566-.189h-.943l-.88.252h-.377l-.629-.126-.566-.44-.377-.566a1.384,1.384,0,0,1-.126-.692,1.949,1.949,0,0,1,.44-1.258,1.761,1.761,0,0,1,1.383-.566h.943a1.132,1.132,0,0,0,.566-.126l.566-.314a1.886,1.886,0,0,0,.5-.5,1.2,1.2,0,0,0,.189-.629h0a1.132,1.132,0,0,0-.377-.817,2.829,2.829,0,0,0-.88-.629l-.817-.189a2.075,2.075,0,0,1-1.069-1.006c-.063-.251-.063-.377-.126-.377Zm4.716,9.118h.126a1.7,1.7,0,0,1,1.069.377,1.383,1.383,0,0,1,.5.943,1.006,1.006,0,0,1-.189.566.943.943,0,0,1,.126.566,1.886,1.886,0,0,1-.377,1.132,1.748,1.748,0,0,1-2.515-.063,1.887,1.887,0,0,1-.566-1.446,1.447,1.447,0,0,1,.126-.692,2.326,2.326,0,0,1,.314-.692,2.453,2.453,0,0,1,.629-.5A1.32,1.32,0,0,1,276.631,227.711Zm1.761-9.118.629.755.377.566.189.566c0,.189.063.44.063.755a5.032,5.032,0,0,1-.377,1.886,7.543,7.543,0,0,1-1.195,1.7l.818.314.817.44.88.566c0-.126-.063-.189-.063-.252v-.126a6.094,6.094,0,0,1,.063-1.069V221.8c-.063-.314-.063-.692-.126-1.132a7.223,7.223,0,0,1-.063-1.132,5.409,5.409,0,0,1-.063-.943Z" transform="translate(-162.499 -204.004)" fill="#5f6368"/>
      <path id="Path_1782" data-name="Path 1782" d="M292.518,215.323l.566-.629a1.2,1.2,0,0,1,.755-.251l.44.126c.126,0,.251.126.377.252l.314.377.44.5.126.44a.755.755,0,0,1-.251.566c-.126,1.509-.252,2.83-.252,4.024v1.7a28.674,28.674,0,0,1,1.509-4.968,20.246,20.246,0,0,1,2.7-4.4,7.541,7.541,0,0,1,.943-1.006,2.768,2.768,0,0,1,.692-.566l.566-.189h.692a.943.943,0,0,1,.629.189,2.263,2.263,0,0,1-.44.629,2.829,2.829,0,0,1-.629.566l-1.006.692-1.321,1.006a9.874,9.874,0,0,0-1.195,1.321l-.755,1.069a11.325,11.325,0,0,0-.692,1.258,8.049,8.049,0,0,0-.629,1.635,21.767,21.767,0,0,0-.692,2.327,5.849,5.849,0,0,0-.252,1.195,4.088,4.088,0,0,0-.126.692v4.653c0,.943.063,1.761.063,2.452s.063,1.195.063,1.635.063.692.063.88.063.377.063.5a.817.817,0,0,1,.063.377,1.132,1.132,0,0,0,.063.377,2.075,2.075,0,0,1-.692,1.383,1.635,1.635,0,0,1-1.195.44,1.824,1.824,0,0,1-1.195-.5,1.7,1.7,0,0,1-.629-1.321h0c0-.126.063-.189.063-.252v-.252a4.036,4.036,0,0,0,.126-.44c.063-.189.063-.44.126-.755s.126-.755.189-1.321.126-1.195.189-2.012.063-1.006.126-1.572v-2.012c0-1.132-.063-2.264-.063-3.4s-.063-2.2-.063-3.333l-.126-2.327h-.251a.818.818,0,0,1,0-1.635Z" transform="translate(-169.96 -202.369)" fill="#5f6368"/>
      <path id="Path_1783" data-name="Path 1783" d="M301.627,217.292h5.659l.252-.126.566-.252.629-.189.5-.126a1.7,1.7,0,0,1,1.069.377,1.258,1.258,0,0,1,.5,1.069v.44a1.574,1.574,0,0,1-.251.44l-.566.377-1.195.5a2.955,2.955,0,0,0-1.006.629l-1.006.818-.88.88c-.189.252-.377.44-.377.566a7.979,7.979,0,0,0-.818,1.383,15.35,15.35,0,0,0-.629,1.509,12.877,12.877,0,0,0-.314,1.509,6.162,6.162,0,0,0-.126,1.446v1.383a8.93,8.93,0,0,0,.252,1.258,5.283,5.283,0,0,0,.5,1.258,9.248,9.248,0,0,0,.817,1.509,9.686,9.686,0,0,0,1.446,1.824,14.9,14.9,0,0,0,1.886,1.446,10.439,10.439,0,0,0,2.075.943,7.043,7.043,0,0,0,2.264.314h.44a6.791,6.791,0,0,0,3.459-1.006,4.464,4.464,0,0,1,1.635-.566h0a1.572,1.572,0,0,1-.314,1.006,5.408,5.408,0,0,1-1.069.943,4.906,4.906,0,0,1-1.635.629,7.42,7.42,0,0,1-2.138.252,9.558,9.558,0,0,1-4.653-1.195,11.948,11.948,0,0,1-2.515-1.572,10,10,0,0,1-2.138-2.452,10.691,10.691,0,0,1-2.327-6.54,10.94,10.94,0,0,1,.314-2.452,17.859,17.859,0,0,1,.817-2.39,13.144,13.144,0,0,1,1.195-2.264,22.749,22.749,0,0,1,1.383-2.012h-3.71a.629.629,0,0,1-.44-.251.855.855,0,0,1,.44-1.321Z" transform="translate(-173.598 -204.338)" fill="#5f6368"/>
      <path id="Path_1784" data-name="Path 1784" d="M312.415,218.7a.818.818,0,0,1,0-1.635h13.08a2.579,2.579,0,0,1,.566-.755l.377-.314c.314.063.629.44.943,1.069H329.2a.566.566,0,0,1,.5.252.755.755,0,0,1,0,1.132.566.566,0,0,1-.5.251h-1.383a14.836,14.836,0,0,1-.189,1.509c-.063.817-.189,1.886-.314,3.333a6.881,6.881,0,0,0-.063,1.509,10.185,10.185,0,0,0-.063,1.383v.692l.126.314a6.85,6.85,0,0,1,.314.88c.126.377.189.818.314,1.321a11.757,11.757,0,0,1,.252,1.572,1.635,1.635,0,0,1-.566,1.321,1.824,1.824,0,0,1-1.195.5,1.572,1.572,0,0,1-1.195-.5,1.635,1.635,0,0,1-.566-1.321V230.9a2.326,2.326,0,0,0,.063-.692l.126-1.886c0-.629-.063-1.132-.063-1.509l-.189-.943a1.2,1.2,0,0,0-.252-.566,1.885,1.885,0,0,0-.252-.5l-.126-.252-.252-.377-.252-.314-.252-.126-.44.629a1.447,1.447,0,0,0-.189.692l-.126.5a2.829,2.829,0,0,1,.377,1.258,1.76,1.76,0,0,1-.44,1.195,1.635,1.635,0,0,1-1.321.566l-.566-.126a1.32,1.32,0,0,1-.629-.377,2.2,2.2,0,0,1-.377-.566,1.7,1.7,0,0,1-.189-.755,12.2,12.2,0,0,0,.189-1.383,3.209,3.209,0,0,0-.189-1.069,5.6,5.6,0,0,0-.5-1.069,2.327,2.327,0,0,0-.817-.755,2.138,2.138,0,0,0-1.069-.314,2.327,2.327,0,0,0-1.446.44,3.27,3.27,0,0,0-1.006,1.383h.692a1.95,1.95,0,0,1,.818.189,2.075,2.075,0,0,1,.817.44,4.021,4.021,0,0,1,.629.817,2.075,2.075,0,0,1,.252,1.069h0a4.281,4.281,0,0,1-.126.88,4.718,4.718,0,0,1-.44.755,2.138,2.138,0,0,1-.755.566,2.327,2.327,0,0,1-.943.189h-.063a2.012,2.012,0,0,1-1.195-.314,3.207,3.207,0,0,1-1.006-.817,4.4,4.4,0,0,1-.692-1.321,6.35,6.35,0,0,1-.252-1.572,5.093,5.093,0,0,1,.377-1.949,9.619,9.619,0,0,1,1.006-1.572,5.721,5.721,0,0,1,1.446-1.069,4.276,4.276,0,0,1,3.018-.189,2.893,2.893,0,0,1,1.006.44l.817.629.755.943a2.012,2.012,0,0,1,2.012-1.761h.063a1.949,1.949,0,0,1,1.446.692,12.329,12.329,0,0,1,1.195,2.138h0c-.063-1.258-.126-2.264-.189-2.956s-.063-1.132-.063-1.195v-.252h-12.7Z" transform="translate(-177.532 -204.115)" fill="#5f6368"/>
      <path id="Path_1785" data-name="Path 1785" d="M338.316,211.689H338a.818.818,0,0,1,0-1.635h.189c.063-.063.126-.126.126-.377a2.958,2.958,0,0,1,.566-.755,1.509,1.509,0,0,1,.755-.314h.063a1.383,1.383,0,0,1,.88.377,2.012,2.012,0,0,1,.629,1.069h3.459a3.143,3.143,0,0,0,1.195-.629,3.837,3.837,0,0,0,1.006-1.006,6.48,6.48,0,0,0,.692-1.321,4.465,4.465,0,0,0,.252-1.635v-.5a9.693,9.693,0,0,0-.126-1.195,6.6,6.6,0,0,0-.5-1.446,8.428,8.428,0,0,0-.755-1.509,4.276,4.276,0,0,0-1.069-1.321,6.162,6.162,0,0,0-4.276-1.886,4.715,4.715,0,0,0-1.824.377,5.534,5.534,0,0,0-1.761,1.006,4.968,4.968,0,0,0-1.195,1.572,3.711,3.711,0,0,0-.5,2.012v.189a3.71,3.71,0,0,0,.314,1.572,5.156,5.156,0,0,0,2.264,2.578,3.773,3.773,0,0,0,1.887.44h.063a3.018,3.018,0,0,0,1.132-.189l1.006-.5a5.029,5.029,0,0,1,1.006-.5,5.281,5.281,0,0,1,1.195-.44h.5c.063,0,.126.126.126.377v.189a1.568,1.568,0,0,1-.126.44l-.314.5-.44.377-.44.189-.44.189H341.02a8.552,8.552,0,0,1-2.264-.314A4.591,4.591,0,0,1,337,206.6a4.277,4.277,0,0,1-1.258-1.7,5.6,5.6,0,0,1-.44-2.39h0a5.472,5.472,0,0,1,.44-2.327,5.66,5.66,0,0,1,1.321-1.7,4.716,4.716,0,0,1,1.824-1.006,7.232,7.232,0,0,1,2.327-.377h1.383a6.663,6.663,0,0,1,1.195.377l1.258.692,1.321,1.069a10.375,10.375,0,0,1,2.893,7.357,6.1,6.1,0,0,1-.5,2.578l-.377.692h2.39a.818.818,0,0,1,0,1.635h-9.621a6.483,6.483,0,0,0-.063,1.069v4.087c-.063,1.383-.063,3.081-.063,5.094a.5.5,0,0,0,.126.377l.44.44.755.377a2.075,2.075,0,0,0,.943.189,3.333,3.333,0,0,0,1.509-.377,4.591,4.591,0,0,0,1.383-1.006,6.164,6.164,0,0,0,1.006-1.321,3.332,3.332,0,0,0,.377-1.446v-.314a2.515,2.515,0,0,0-.566-1.446l-.126-.126v.566a1.948,1.948,0,0,1-.189.817,1.258,1.258,0,0,1-.5.755,2.83,2.83,0,0,1-1.887.818,2.515,2.515,0,0,1-.943-.189,2.139,2.139,0,0,1-.755-.566,2.39,2.39,0,0,1-.566-.817,2.579,2.579,0,0,1-.189-1.006v-.126a1.7,1.7,0,0,1,.251-.818,4.4,4.4,0,0,1,.629-1.006,6.475,6.475,0,0,1,.943-.88,3.521,3.521,0,0,1,1.069-.566,1.7,1.7,0,0,1,.755-.189l.692-.126h.063a3.019,3.019,0,0,1,1.509.377,3.458,3.458,0,0,1,1.132,1.006,7.734,7.734,0,0,1,.692,1.446,8.552,8.552,0,0,1,.189,1.824,5.785,5.785,0,0,1-.44,2.39,7.044,7.044,0,0,1-1.132,1.761,8.617,8.617,0,0,1-1.446,1.258,8.487,8.487,0,0,1-1.321.817,10.628,10.628,0,0,1-3.27.818h-.063a4.908,4.908,0,0,1-1.321-.252,4.341,4.341,0,0,1-1.195-.629l-.943-.88a10.93,10.93,0,0,1-.692-1.132h0c0-.692.063-1.446.126-2.327v-1.069c0-.44.063-.943.063-1.509v-3.081c.063-1.509.126-2.515.126-2.955Z" transform="translate(-186.329 -197.1)" fill="#5f6368"/>
      <path id="Path_1786" data-name="Path 1786" d="M98.4,246.1h22.889v3.27a3.081,3.081,0,0,1-4.024,2.893Z" transform="translate(-98.4 -215.287)" fill="#5f6368"/>
      <path id="Path_1787" data-name="Path 1787" d="M130.973,216.938v-5.282a2.955,2.955,0,0,0-2.955-2.955H98.4v23.518h29.555a3.081,3.081,0,0,0,3.018-3.081V223.98H123.8a1.258,1.258,0,0,1-1.258-1.258V218.2a1.258,1.258,0,0,1,1.258-1.258Z" transform="translate(-98.4 -201.406)" fill="#d6001b"/>
      <circle id="Ellipse_176" data-name="Ellipse 176" cx="1.195" cy="1.195" r="1.195" transform="translate(27.605 17.859)" fill="#5f6368"/>
    </g>
  </g>
</svg>
